<?xml version="1.0" encoding="utf-8"?>
<!-- Svg Vector Icons : http://www.onlinewebfonts.com/icon -->
<!DOCTYPE svg PUBLIC "-//W3C//DTD SVG 1.1//EN" "http://www.w3.org/Graphics/SVG/1.1/DTD/svg11.dtd">
<svg version="1.1" xmlns="http://www.w3.org/2000/svg" xmlns:xlink="http://www.w3.org/1999/xlink" x="0px" y="0px" viewBox="0 0 1000 1000" enable-background="new 0 0 1000 1000" xml:space="preserve">
<metadata> Svg Vector Icons : http://www.onlinewebfonts.com/icon </metadata>
<g>
    <path d="


        M900.9,99.1h-89.1V32.3c0-13.4-8.9-22.3-22.3-22.3c-13.4,0-22.3,8.9-22.3,22.3v66.8H232.7V32.3c0-13.4-8.9-22.3-22.3-22.3c-13.4,0-22.3,8.9-22.3,22.3v66.8H99.1c-49,0-89.1,40.1-89.1,89.1v133.6v44.5v534.5c0,49,40.1,89.1,89.1,89.1h801.8c49,0,89.1-40.1,89.1-89.1V366.4v-44.5V188.2C990,139.2,949.9,99.1,900.9,99.1z

        M945.5,900.9c0,24.5-20,44.5-44.5,44.5H99.1c-24.5,0-44.5-20-44.5-44.5V366.4h890.9V900.9z

        M945.5,321.8H54.5V188.2c0-24.5,20-44.5,44.5-44.5h89.1v66.8c0,13.4,8.9,22.3,22.3,22.3c13.4,0,22.3-8.9,22.3-22.3v-66.8h534.5v66.8c0,13.4,8.9,22.3,22.3,22.3c13.4,0,22.3-8.9,22.3-22.3v-66.8h89.1c24.5,0,44.5,20,44.5,44.5V321.8z

        "/>
</g>
</svg>
