<?xml version="1.0" encoding="utf-8"?>
<!-- Generator: Adobe Illustrator 24.0.1, SVG Export Plug-In . SVG Version: 6.00 Build 0)  -->
<svg version="1.1" id="Layer_1" xmlns="http://www.w3.org/2000/svg" xmlns:xlink="http://www.w3.org/1999/xlink" x="0px" y="0px"
	 viewBox="0 0 557 349.8" style="enable-background:new 0 0 557 349.8;" xml:space="preserve">
<style type="text/css">
	.st0{enable-background:new    ;}
	.st1{fill:#000000;}
	.st2{fill:none;}
</style>
<path class="st1" d="M314.6,30.1H532c4.6,0,8.3,3.7,8.3,8.3V90c0-6.5,3.7,8.3,8.3,8.3s8.3-3.7,8.3-8.3V38.4c0-13.8-11.2-25-25-25
	h-417c-13.8,0-25,11.2-25,25v39.8L14.2,2.4c-3.3-3.3-8.5-3.3-11.8,0s-3.3,8.5,0,11.8l98.1,98.1l-51.8,52l-34.5-34.5
	c-3.3-3.3-8.5-3.3-11.8,0c-3.3,3.3-3.3,8.5,0,11.8l69.2,69.2v7.5c0,19.1,6.5,38,18.3,52.9v53.7c0,13.8,11.2,25,25,25h417
	c13.8,0,25-11.2,25-25V86.7c0-4.6-3.7-8.3-8.3-8.3s-8.3,3.7-8.3,8.3v238.4c0,4.6-3.7,8.3-8.3,8.3H227.7c0.4-0.3,0.7-0.7,1-0.9
	c2.1-2.1,3.8-4.6,4.9-7.2c3.3,1.7,7,2.5,10.7,2.5c6.4,0,12.5-2.5,17-7.1c4.6-4.6,7.1-10.5,7.1-17c0-3.8-0.8-7.5-2.5-10.7
	c2.6-1.2,5-2.8,7.2-4.9c4.6-4.6,7.1-10.5,7.1-17c0-6.4-2.5-12.5-7.1-17l-28.7-28.7c8.9,0.7,17.8-3.2,23.3-10.7l0.3-0.4
	c8.8-11.9,6.2-28.8-5.6-37.6c-7.5-5.5-17.5-13.1-30-22.4c-17.5-13.1-39.2-20.3-61-20.3h-0.1h-25.7l-38.9-38.9V38.5
	c0-4.6,3.7-8.3,8.3-8.3h87 M106.7,325v-36.2L134,316l0,0l17.3,17.3h-36.2C110.5,333.4,106.7,329.6,106.7,325z M171.3,150.5
	L171.3,150.5c18.4,0,36.5,6.1,51.1,17c12.5,9.3,22.6,16.9,30.1,22.5c4.5,3.4,5.5,9.8,2.1,14.4l-0.3,0.4c-3.1,4.2-8.9,5.2-13.2,2.4
	l-32-20.6c-4.2-2.7-9.6-1.8-12.8,2.1c-3.1,3.8-2.8,9.4,0.7,12.9l64.3,64.3c1.4,1.4,2.1,3.3,2.1,5.2s-0.7,3.8-2.1,5.2
	s-3.3,2.1-5.2,2.1c-1.7,0-3.3-0.6-4.6-1.6l-32.2-32.2c-0.2-0.2-0.5-0.5-0.7-0.7l-3.3-3.3c-3.3-3.3-8.5-3.3-11.8,0
	c-3.3,3.3-3.3,8.5,0,11.8l35.6,35.6c0.4,0.4,0.7,0.7,1.1,1l9.4,9.4c1.4,1.4,2.1,3.3,2.1,5.2s-0.7,3.8-2.1,5.2
	c-1.4,1.4-3.3,2.1-5.2,2.1c-2,0-3.8-0.7-5.2-2.1l-9.6-9.3c-0.4-0.4-0.7-0.7-1-1.1l-31.6-31.6c-0.2-0.2-0.5-0.5-0.7-0.7l-3.3-3.3
	c-3.3-3.3-8.5-3.3-11.8,0c-3.3,3.3-3.3,8.5,0,11.8l36.2,36.2c2.3,2.9,2.1,7.1-0.6,9.8c-2.9,2.9-7.6,2.9-10.4,0L196,310.1
	c-0.4-0.4-0.7-0.7-1-1.1l-20.1-20.1c-0.2-0.2-0.5-0.5-0.7-0.7l-3.3-3.3c-3.3-3.3-8.5-3.3-11.8,0c-3.3,3.3-3.3,8.5,0,11.8l24.6,24.6
	c1,1.3,1.6,2.9,1.6,4.6c0,2-0.7,3.8-2.1,5.2c-1.4,1.4-3.3,2.1-5.2,2.1c-2,0-3.8-0.7-5.2-2.1l-43.7-43.7l0,0L108.6,267
	c-12.8-12.8-20.1-30.6-20.1-48.7v-12.1l55.8-55.8L171.3,150.5z M77.8,193.3L60.6,176l51.9-51.9l17.3,17.3L77.8,193.3z M218.7,30.1
	H298"/>
<polygon class="st2" points="535.5,173.1 532.9,173.1 532.9,173.1 "/>
</svg>
