<?xml version="1.0" encoding="utf-8"?>
<!-- Generator: Adobe Illustrator 24.0.1, SVG Export Plug-In . SVG Version: 6.00 Build 0)  -->
<svg version="1.1" id="Layer_1" xmlns="http://www.w3.org/2000/svg" xmlns:xlink="http://www.w3.org/1999/xlink" x="0px" y="0px"
	 viewBox="0 0 599.4 351.9" style="enable-background:new 0 0 599.4 351.9;" xml:space="preserve">
<style type="text/css">
	.st0{fill:none;}
	.st1{fill:#000000;}
	.st2{enable-background:new    ;}
</style>
<g>
	<g>
		<path class="st0" d="M250,278.9c-13.5,0-25,11.2-25,24.6s11.4,24.6,25,24.6c13.3,0,24.1-11,24.1-24.6S263.3,278.9,250,278.9z"/>
		<path class="st0" d="M504.6,278.9c-13.5,0-25,11.2-25,24.6s11.4,24.6,25,24.6c13.3,0,24.1-11,24.1-24.6S517.9,278.9,504.6,278.9z"
			/>
		<polygon class="st0" points="468.1,119.9 468.1,181.6 529.2,181.6 529.2,141.5 505.1,119.9 		"/>
		<path class="st1" d="M180.5,267.9H92.7v-20.2c0-6.6-5.3-11.9-11.9-11.9s-11.9,5.4-11.9,11.9v32.2c0,6.6,5.3,11.9,11.9,11.9h99.7
			c6.6,0,11.9-5.3,11.9-11.9C192.4,273.3,187,267.9,180.5,267.9z"/>
		<path class="st1" d="M517.7,99.2c-2.1-2-5-3.1-8-3.1h-53.5c-6.6,0-11.9,5.3-11.9,11.9v85.5c0,6.6,5.3,11.9,11.9,11.9h84.9
			c6.6,0,11.9-5.4,11.9-11.9v-57.2c0-3.3-1.4-6.6-3.9-8.8L517.7,99.2z M529.2,141.5v40.1h-61v-61.7h36.9L529.2,141.5z"/>
		<path class="st1" d="M250,255.1c-12.9,0-25.2,5-34.4,14.2c-9.3,9.3-14.4,21.4-14.4,34.2c0,12.9,5.1,25,14.4,34.2
			c9.4,9.1,21.6,14.2,34.4,14.2c26.5,0,48-21.7,48-48.4S276.5,255.1,250,255.1z M274.1,303.5c0,13.5-10.8,24.6-24.1,24.6
			c-13.5,0-25-11.2-25-24.6s11.4-24.6,25-24.6C263.3,278.9,274.1,290,274.1,303.5z"/>
		<path class="st1" d="M595.1,112.4L595.1,112.4l-74.6-61.8c-2.2-1.8-4.8-2.7-7.6-2.7h-86.3v-36c0-6.6-5.3-11.9-11.9-11.9H80.8
			c-6.6,0-11.9,5.3-11.9,11.9v58.3c0,6.6,5.3,11.9,11.9,11.9s11.9-5.3,11.9-11.9V23.8h310.1v244.1h-84c-6.6,0-11.9,5.3-11.9,11.9
			s5.3,11.9,11.9,11.9h120.3c6.6,0,11.9-5.3,11.9-11.9s-5.3-11.9-11.9-11.9h-12.5V71.7h82l67,55.5l-0.7,140.5h-5.4
			c-6.6,0-11.9,5.3-11.9,11.9s5.3,11.9,11.9,11.9h17.2c6.6,0,11.9-5.3,11.9-11.8l0.8-158.1C599.4,118,597.8,114.6,595.1,112.4z"/>
		<path class="st1" d="M504.6,255.1c-12.9,0-25.2,5-34.4,14.2c-9.3,9.3-14.4,21.4-14.4,34.2c0,12.9,5.1,25,14.4,34.2
			c9.4,9.1,21.6,14.2,34.4,14.2c26.5,0,48-21.7,48-48.4S531.1,255.1,504.6,255.1z M528.7,303.5c0,13.5-10.8,24.6-24.1,24.6
			c-13.5,0-25-11.2-25-24.6s11.4-24.6,25-24.6C517.9,278.9,528.7,290,528.7,303.5z"/>
	</g>
	<!-- <g class="st2">
		<path class="st1" d="M151.5,115.1v-11.8h-19.3v-5.5l17.7-28.9h9.4v27.9h5.6v6.5h-5.6v11.8H151.5z M151.5,96.8V84.8
			c0-2.7,0.1-5.3,0.3-8.1h-0.2c-1.4,2.9-2.6,5.3-3.9,7.8l-7.6,12.2v0.1H151.5z"/>
		<path class="st1" d="M168.5,103.2c0-5.8,3.4-9.8,8.2-12.1v-0.2c-4.5-2.4-6.7-6.3-6.7-10.2c0-7.5,6.3-12.4,14.4-12.4
			c8.9,0,13.4,5.7,13.4,11.4c0,3.8-1.9,7.9-6.8,10.5v0.2c4.8,2.1,8.3,6.1,8.3,11.9c0,8.2-6.5,13.6-15.6,13.6
			C173.8,115.8,168.5,109.8,168.5,103.2z M191,102.8c0-4.7-3.3-7.4-7.8-8.9c-3.9,1.4-6.2,4.5-6.2,8.4c-0.1,4,2.6,7.6,7.1,7.6
			C188.2,109.9,191,107,191,102.8z M178,80.3c0,3.8,2.8,6,6.8,7.5c2.8-1.1,5.1-3.8,5.1-7.2s-1.7-6.6-5.9-6.6
			C180.2,74,178,76.9,178,80.3z"/>
		<path class="st1" d="M219.6,65h8.4v19.9h0.1c1-1.5,2.3-2.8,3.9-3.6c1.6-0.9,3.5-1.5,5.5-1.5c5.8,0,11,4.1,11,14.5v20.8h-8.4V95
			c0-4.7-1.5-8.4-5.8-8.4c-3,0-5.2,2.1-6,4.8c-0.3,0.7-0.4,1.7-0.4,2.6v21h-8.4V65z"/>
		<path class="st1" d="M287.3,97.5c0,13.1-8.4,18.2-16.2,18.2c-9,0-15.8-6.5-15.8-17.8c0-11.6,7-18.2,16.3-18.2
			C281,79.8,287.3,86.7,287.3,97.5z M263.9,97.8c0,6.4,2.6,11.8,7.5,11.8c4.7,0,7.4-5.5,7.4-11.9c0-5.3-2-11.8-7.4-11.8
			C265.9,86,263.9,92.3,263.9,97.8z"/>
		<path class="st1" d="M322.6,104.8c0,4,0.1,7.5,0.3,10.3h-7.3l-0.4-4.8h-0.1c-1.4,2.3-4.7,5.5-10.1,5.5c-6.3,0-11.1-4-11.1-14.7
			V80.5h8.4v19.3c0,5.5,1.6,9.1,5.8,9.1c3.1,0,5-2.3,5.8-4.3c0.3-0.8,0.4-1.8,0.4-2.8V80.5h8.4V104.8z"/>
		<path class="st1" d="M331.4,91.2c0-4.2-0.1-7.7-0.3-10.7h7.3l0.4,6.2h0.2c1.6-4.5,5.3-6.9,8.7-6.9c0.8,0,1.3,0.1,1.9,0.1V88
			c-0.6-0.1-1.3-0.2-2.3-0.2c-3.7,0-6.5,2.5-7.3,6.4c-0.1,0.8-0.3,1.8-0.3,2.8v18h-8.4V91.2z"/>
		<path class="st1" d="M354.5,107.3c1.7,1.1,5,2.3,8,2.3c3.5,0,5.2-1.6,5.2-3.9c0-2.3-1.3-3.5-5.3-5.2c-6.2-2.6-8.8-6.1-8.8-10.1
			c0-6,4.9-10.6,12.4-10.6c3.5,0,6.5,0.9,8.4,2l-1.7,6c-1.4-0.9-3.8-1.8-6.5-1.8c-3,0-4.5,1.6-4.5,3.6c0,2.1,1.4,3.2,5.5,4.9
			c5.8,2.4,8.5,5.7,8.6,10.5c0,6.5-4.9,10.8-13.3,10.8c-3.8,0-7.3-0.9-9.6-2.3L354.5,107.3z"/>
	</g> -->
	<!-- <g class="st2">
		<path class="st1" d="M0,137c4.9-0.8,11.1-1.4,17.8-1.4c11.4,0,19.2,2.5,24.9,7.4C49.2,148.2,53,156.6,53,169
			c0,13.1-4.1,22.3-10.2,27.9c-6.2,5.8-15.8,8.7-27.9,8.7c-6.2,0-11.2-0.4-14.9-0.8V137z M12.1,195.7c1.5,0.2,3.7,0.3,5.7,0.3
			c13.7,0,22.6-8.2,22.6-26.7c0-15.3-7.5-24.2-21.4-24.2c-3.1,0-5.4,0.3-6.9,0.6V195.7z"/>
		<path class="st1" d="M71.4,183.4c0.3,9.6,6.7,13.3,14.1,13.3c5.1,0,9-0.8,12.3-2.1l1.8,8.5c-4,1.6-9.5,2.9-15.9,2.9
			c-15.1,0-23.8-9.8-23.8-25c0-14.6,8.2-26.7,22.6-26.7s19.7,12.2,19.7,23.8c0,2.5-0.2,4.3-0.4,5.4H71.4z M90.9,174.9
			c0.1-5.6-2.1-12.3-9.2-12.3c-6.8,0-9.7,7-10.2,12.3H90.9z"/>
		<path class="st1" d="M111,193.7c2.5,1.6,7.3,3.4,11.4,3.4c5,0,7.5-2.2,7.5-5.6c0-3.3-1.8-5.1-7.6-7.5c-9-3.7-12.7-8.8-12.7-14.5
			c0-8.7,7.1-15.3,17.8-15.3c5.1,0,9.4,1.3,12.2,2.9l-2.5,8.6c-2-1.2-5.5-2.7-9.4-2.7c-4.3,0-6.5,2.2-6.5,5.2c0,3.1,2,4.6,7.9,7.1
			c8.3,3.5,12.3,8.2,12.4,15.1c0,9.4-7.1,15.5-19.1,15.5c-5.4,0-10.5-1.3-13.8-3.3L111,193.7z"/>
		<path class="st1" d="M151,171.4c0-6.5-0.2-11.8-0.4-16.3h10.6l0.6,7.2h0.2c3.3-5.3,8.4-8.2,15-8.2c10.9,0,19.1,10,19.1,25.4
			c0,18-10.2,26.4-20.5,26.4c-5.7,0-10.1-2.7-12.4-6.2H163V225H151V171.4z M163,184.9c0,1.3,0.1,2.6,0.4,3.7c1.3,5,5.1,7.9,9.4,7.9
			c7.3,0,11.1-7,11.1-16.5c0-9.1-3.8-16.1-10.9-16.1c-4.4,0-8.5,3.6-9.6,8.5c-0.2,1-0.4,2.1-0.4,3.3V184.9z"/>
		<path class="st1" d="M231.8,205l-0.8-5.4h-0.3c-2.8,3.9-7.6,6.4-13.4,6.4c-9.2,0-14.7-6.8-14.7-14.7c0-12.7,11-18.7,27.3-18.7v-1
			c0-3.8-1.5-8.7-9.3-8.7c-4.5,0-9,1.4-12.2,3.5l-2.4-8c3.4-2,9.4-4.2,16.8-4.2c15,0,19.1,9.7,19.1,20.5v18.5
			c0,4.3,0.2,8.6,0.8,11.8H231.8z M230.2,180.4c-7.5-0.1-15.7,1.6-15.7,9.5c0,5.1,3.2,7.3,6.6,7.3c4.3,0,7.7-2.8,8.8-6.4
			c0.2-0.9,0.3-1.8,0.3-2.8V180.4z"/>
		<path class="st1" d="M267.6,141.2v14h11.2v9h-11.2v23.1c0,6,1.8,8.7,6,8.7c1.9,0,3.4-0.2,4.5-0.5l0.2,9.3
			c-1.8,0.6-4.8,1.1-8.6,1.1c-4.3,0-7.9-1.3-10.2-3.8c-2.6-2.8-3.8-7.1-3.8-13.8v-24.1H249v-9h6.7v-11L267.6,141.2z"/>
		<path class="st1" d="M320.2,203.6c-2.2,1.1-6.8,2.2-12.4,2.2c-14.4,0-23.8-9.6-23.8-25.3c0-14.9,9.6-26.3,25.8-26.3
			c4.2,0,8.3,0.9,10.6,1.9l-2,9.3c-1.7-0.8-4.4-1.7-8.2-1.7c-8.9,0-14,7.2-13.9,16.4c0,10.1,5.9,16.1,13.9,16.1
			c3.6,0,6.3-0.8,8.5-1.7L320.2,203.6z"/>
		<path class="st1" d="M328.6,132.9h12.2v28.6h0.2c1.4-2.1,3.3-4,5.6-5.2c2.2-1.3,5-2.1,8-2.1c8.3,0,15.8,5.9,15.8,20.8V205h-12.1
			v-28.8c0-6.7-2.1-12.1-8.4-12.1c-4.3,0-7.5,3-8.7,6.8c-0.4,1-0.5,2.5-0.5,3.8V205h-12.2V132.9z"/>
	</g> -->
</g>
</svg>
