<svg id="Layer_1" data-name="Layer 1" xmlns="http://www.w3.org/2000/svg" xmlns:xlink="http://www.w3.org/1999/xlink" viewBox="0 0 137.55 137.37"><defs><style>.cls-1{fill:url(#linear-gradient);}.cls-2{fill:url(#linear-gradient-2);}.cls-3{fill:url(#linear-gradient-3);}.cls-4{fill:url(#linear-gradient-4);}.cls-5{fill:#fff;}.cls-6{fill:#fc8b8b;}.cls-7{fill:#9bea60;}.cls-8{fill:url(#linear-gradient-5);}.cls-9{fill:#e86e0a;}.cls-10{fill:#03c5d0;}.cls-11{fill:#46ac03;}.cls-12{fill:#6acf28;}.cls-13{fill:#6bcf29;}.cls-14{fill:#b2b2b3;}.cls-15{fill:url(#linear-gradient-6);}.cls-16{fill:url(#linear-gradient-7);}.cls-17{fill:none;stroke-miterlimit:10;stroke-width:2px;stroke:url(#linear-gradient-8);}.cls-18{fill:#4aecf4;}.cls-19{fill:#01dce8;}.cls-20{fill:#00deea;}.cls-21{fill:#fef38b;}.cls-22{fill:#ecd105;}</style><linearGradient id="linear-gradient" x1="47.39" y1="67.7" x2="133.2" y2="67.7" gradientUnits="userSpaceOnUse"><stop offset="0" stop-color="#ff7300"/><stop offset="0" stop-color="#fa6a07"/><stop offset="0" stop-color="#ee501c"/><stop offset="0" stop-color="#df3333"/><stop offset="0.99" stop-color="#d66f00"/><stop offset="1" stop-color="#e59e03"/><stop offset="1" stop-color="#e5c500"/></linearGradient><linearGradient id="linear-gradient-2" x1="68.48" y1="137.18" x2="68.48" y2="0" xlink:href="#linear-gradient"/><linearGradient id="linear-gradient-3" x1="136.93" y1="131.79" x2="136.93" y2="89.42" xlink:href="#linear-gradient"/><linearGradient id="linear-gradient-4" x1="26.95" y1="137.37" x2="26.95" y2="136.54" xlink:href="#linear-gradient"/><linearGradient id="linear-gradient-5" x1="53.57" y1="110.26" x2="127.66" y2="110.26" xlink:href="#linear-gradient"/><linearGradient id="linear-gradient-6" x1="10.11" y1="28.92" x2="42.6" y2="28.92" xlink:href="#linear-gradient"/><linearGradient id="linear-gradient-7" x1="10.14" y1="71.86" x2="42.59" y2="71.86" xlink:href="#linear-gradient"/><linearGradient id="linear-gradient-8" x1="18.95" y1="118.47" x2="33.67" y2="118.47" xlink:href="#linear-gradient"/></defs><title>Artboard 3</title><g id="Color_switch" data-name="Color switch"><path class="cls-1" d="M52.81,12.35C60.27,2.28,60.69,2.2,71.42,8.42,79.84,13.29,88.3,18.09,96.68,23c7.19,4.22,7.76,7.46,2.76,14.33,1.87,1.28,3.13-.51,4.69-.89,4-1,7.22-.3,9.48,3.77C119.27,50.39,125.25,60.38,131,70.5c3.76,6.62,2.85,9.5-4,13.63.29,1,.1,1.74-1,2-1.69.41-2.35-.67-2.72-2.06-.11-2,1.12-3.18,2.51-4.28,2.48-1.54,3.1-3.65,1.71-6.2C122,63.29,116.33,53.07,110,43.22a5,5,0,0,0-3.9-2.21c-1.85-.14-3.19,1-4.61,1.88-4.35,2.13-6.71,6-9.09,10.14,2.52-.61,4.36-2.21,6.46-3.33,4.14-2.1,7.37-.67,9.71,2.87a140.18,140.18,0,0,1,9.76,16.59c2.68,5.59,2.05,8.58-3.06,11.88-5.57,3.6-11.36,6.87-17.16,10.11C93.78,93.6,90,92.38,87,88.6c-2.35-3-4-6.35-6-9.51-.66-.72-1.21-2.17-2.44-.92a5,5,0,0,0-.85,6.55c7.86,13.46,7.64,14.21-6.19,22-3.05,1.72-6,3.68-9.14,5.19-3.1,1.31-5.93,2.94-7.35,6.23-.42,1-1.07,2.12.84,2.26,1.08-.22,2.14-.63,3.25-.19a5.25,5.25,0,0,1,1.73,3,3.49,3.49,0,0,1-.38,1.74c-1.52,2.19-4.28,2-6.29,3.24-.5.41-1,.79-1.5,1.2-1.73,2-3.36,3-4.57-.45a13.45,13.45,0,0,1-.57-3.94c-.05-38.46-.35-76.91.13-115.37A7,7,0,0,1,49,6.23c2.22-1.41,2.25.28,2.58,1.76S50.6,11.42,52.81,12.35Z"/><path class="cls-2" d="M124.12,82.89c.36,1.82.7,3.7,2.89,1.23,4.19-.14,7.49,1.27,9.3,5.3a349.68,349.68,0,0,1,0,42.36c-.52,3.87-3.31,5.13-6.6,5.13-27.4-.06-54.8-.23-82.2-.37a334.78,334.78,0,0,1-41.11,0C.57,136.26,0,132.18,0,127.68Q0,108.09,0,88.5,0,49.66,0,10.82C0,1.48,1.51,0,10.81,0c9.52,0,19,0,28.55,0C51.69,0,52.12.4,52.81,12.35c-3.39-1.07-.71-4.95-3-6.52-13.48-1.49-27-.37-40.52-.7C6.07,5.06,4.86,6.57,5.12,9.6c-.15,37.6,0,75.19,0,112.79,0,3.05-.36,6.25,1.8,8.87a6.34,6.34,0,0,0,4.76,2c11-.22,22.1.56,33.13-.45,1.67-.6,3.19-1.68,5.06-1.67,1.42-.92.66-3.44,2.81-3.83,1,1.23.89,2.79,1.25,4.21a3.32,3.32,0,0,0,1.16,1.41c23.83.76,47.62.18,71.42.29a6.33,6.33,0,0,0,3.66-1.29c2.09-1.66,2.72-4,2.75-6.47.1-9.71.19-19.42-.05-29.13-.07-2.73-.75-5.27-3.42-6.71-6.53-2.59-11.44,2-17,3.84-1.47,0-2.76-.24-3.27-1.87C113,86.58,117.46,82.87,124.12,82.89Z"/><path class="cls-3" d="M136.32,131.79q0-21.18,0-42.36A181.6,181.6,0,0,1,136.32,131.79Z"/><path class="cls-4" d="M6.4,136.55H47.51A256.5,256.5,0,0,1,6.4,136.55Z"/><path class="cls-5" d="M98.91,32.5Q83.18,60.11,67.43,87.71c-4.14,7.23-8.4,14.38-13.23,21.35-1.07-5.48-1.58-10.66,1.56-15.65,2.93-4.67,5.45-9.6,8.17-14.4,4.58-8.09,4.55-9.08-3.56-13.2-5.71-2.9-8.6-6.6-6.56-13.72,4.84,1.25,8.84,4.3,13,6.78,4.49,2.66,7.68,2.31,10.24-2.67,3-5.89,6.4-11.62,9.82-17.3,2.5-4.14,1.6-7-2.56-9.22-5-2.75-10.09-5.53-14.9-8.67-5.05-3.29-8.54-2.46-11.18,3a63.28,63.28,0,0,1-4,6.24c-2.1-9.14-1.51-11.86,4.36-20.8,3.2.11,5.89,1.54,8.61,3.09,8.81,5,17.53,10.24,26.3,15.34C95.62,29,98.13,29.82,98.91,32.5Z"/><path class="cls-6" d="M56,34.61c6.58-14.17,6.58-14.17,20-6.37,10.2,5.91,10.2,5.91,4.4,16.08-8.22,14.4-8.22,14.4-22.32,6.12-.75-.44-1.42-1-2.13-1.5C53,44.15,54.51,39.38,56,34.61Z"/><path class="cls-7" d="M92.15,59.13c11-7.45,11-7.45,17.52,3.94,7,12.2,7,12.2-5.53,19.26-12,6.77-12,6.77-18.87-5.32-.54-1-.94-2-1.4-3C84.06,67.63,88.06,63.35,92.15,59.13Z"/><path class="cls-8" d="M58.91,120.6l50.68-29.24,2.61,1.08c3.39,2.49,7.82-.22,11.25,2.23a8.77,8.77,0,0,1,3.92,7.29,118.09,118.09,0,0,1,0,17.18c-.56,6.52-3.52,9.25-10.24,9.81-4.18.35-8.37.17-12.56.15-13.25-.07-15.71-2.61-15.57-16,0-1.08.47-2.46-.31-3.19-1.34-1.24-2.28.31-3.27,1-1.88,1.29-2,3.27-2.11,5.31-.14,2.86.3,5.77-.75,8.57-2.19,3.87-6,4.09-9.75,4.2s-7.47.14-11.2,0c-2.75-.42-5.87.46-8-2.21l6.79-2.48c4.63-3.15,10.06-.87,14.94-2.21,1.8-1,1.94-2.7,2-4.47.26-2.33-.36-2.58-2.43-1.44-4.74,2.6-8.8,6.7-14.69,6.84A2.59,2.59,0,0,1,58.91,120.6Z"/><path class="cls-9" d="M52.65,90.46c0-7.59,0-14.45,0-21.3,0-3.12.8-3.87,3.92-2.5C64.92,70.31,65.25,71,60.6,79c-2,3.46-4,6.88-6.11,10.29C54.31,89.63,53.8,89.76,52.65,90.46Z"/><path class="cls-10" d="M60.14,123.08l18-10.37c1.52,1.73.88,3.43.7,5.07-1.44,3.56-5,3.72-8.44,5.09,3-.9,5.41-2.14,7.57.43-5.75,2.18-11.77.1-17.6,1.07A1.93,1.93,0,0,1,60.14,123.08Z"/><path class="cls-11" d="M65.58,104.39c-1.13,1.46-2.63,2.21-5.63,2.46,3.89-6.9,7-13.51,11.17-19.41,2.27-3.23,3.14.29,3.85,2.16A24.53,24.53,0,0,1,65.58,104.39Z"/><path class="cls-12" d="M65.58,104.39,75,89.6c5,7.09,5.05,7.11-2.42,11.29C70.28,102.16,67.91,103.23,65.58,104.39Z"/><path class="cls-13" d="M92.15,59.13,83.87,74c-5.13-4.88-.54-8.25,2.15-11.49C87.42,60.85,90.07,60.23,92.15,59.13Z"/><path class="cls-14" d="M61.49,111l-5.25,10.65c-3.53,3-4.18.61-3.47-2.2C53.89,115,56.73,111.87,61.49,111Z"/><path class="cls-6" d="M56,34.61q0,7.16,0,14.32C51.06,45.24,51.06,41.63,56,34.61Z"/><path class="cls-15" d="M10.14,28.57c0-19.06-1.42-16.48,16.79-16.51,16,0,15.72-2.48,15.66,15.78-.07,20.64,1.39,17.83-18.23,18C8.53,46,10.18,46.57,10.14,28.57Z"/><path class="cls-16" d="M10.16,71.84C10.15,52.45,8.93,55,26.7,55c15.65,0,16-2.82,15.88,15.6-.15,20.95,1.75,18-18,18.11C8.84,88.86,10.18,90.34,10.16,71.84Z"/><path class="cls-17" d="M32.67,118.59c-.31,4.32-2.64,6.38-6.86,6.16-4-.2-5.92-2.68-5.85-6.45s2.21-6.08,6.18-6.13C30.44,112.11,32.49,114.44,32.67,118.59Z"/><path class="cls-18" d="M110.8,97.85c11.63-.74,11.63-.74,11.63,10.66,0,15.57,0,15.72-15.12,15.53s-13.42,3.09-13.39-13.84a11,11,0,0,1,.35-1.95C98.36,102.52,105.3,101.34,110.8,97.85Z"/><path class="cls-19" d="M110.8,97.85c-4.32,5.35-11.07,6.86-16.52,10.41-.07-4.73,5.33-9.89,11.32-10.61A32.11,32.11,0,0,1,110.8,97.85Z"/><path class="cls-20" d="M78,123.29l-8.78-.54,9.64-5C79,119.69,79.64,121.67,78,123.29Z"/><path class="cls-21" d="M39.32,28.76c0,14.2,0,14.2-13.68,14.2C13.35,43,13.35,43,13.35,30.1c0-15.2,0-15.2,13.94-15.2C39.32,14.9,39.32,14.9,39.32,28.76Z"/><path class="cls-22" d="M39.31,72c0,13.86,0,13.86-14,13.86-12,0-12,0-12-12.47,0-15.55,0-15.55,14.91-15.55C39.31,57.86,39.31,57.86,39.31,72Z"/></g></svg>