<svg id="Layer_1" data-name="Layer 1" xmlns="http://www.w3.org/2000/svg" xmlns:xlink="http://www.w3.org/1999/xlink" viewBox="0 0 123 33"><defs><style>.cls-1,.cls-10,.cls-11,.cls-12,.cls-13,.cls-14,.cls-15,.cls-2,.cls-3,.cls-4,.cls-5,.cls-6,.cls-7,.cls-8,.cls-9{fill:none;stroke-linecap:round;stroke-miterlimit:10;stroke-width:3px;}.cls-1{stroke:url(#linear-gradient);}.cls-2{stroke:url(#linear-gradient-2);}.cls-3{stroke:url(#linear-gradient-3);}.cls-4{stroke:url(#linear-gradient-4);}.cls-5{stroke:url(#linear-gradient-5);}.cls-6{stroke:url(#linear-gradient-6);}.cls-7{stroke:url(#linear-gradient-7);}.cls-8{stroke:url(#linear-gradient-8);}.cls-9{stroke:url(#linear-gradient-9);}.cls-10{stroke:url(#linear-gradient-10);}.cls-11{stroke:url(#linear-gradient-11);}.cls-12{stroke:url(#linear-gradient-12);}.cls-13{stroke:url(#linear-gradient-13);}.cls-14{stroke:url(#linear-gradient-14);}.cls-15{stroke:url(#linear-gradient-15);}</style><linearGradient id="linear-gradient" x1="11.45" y1="9.72" x2="11.45" y2="1.22" gradientUnits="userSpaceOnUse"><stop offset="0" stop-color="#ff7300"/><stop offset="0" stop-color="#fa6a07"/><stop offset="0" stop-color="#ee501c"/><stop offset="0" stop-color="#df3333"/><stop offset="0.99" stop-color="#d66f00"/><stop offset="1" stop-color="#e59e03"/><stop offset="1" stop-color="#e5c500"/></linearGradient><linearGradient id="linear-gradient-2" x1="21.45" y1="14.03" x2="21.45" y2="1.22" xlink:href="#linear-gradient"/><linearGradient id="linear-gradient-3" x1="41.45" y1="14.03" x2="41.45" y2="1.22" xlink:href="#linear-gradient"/><linearGradient id="linear-gradient-4" x1="31.45" y1="9.72" x2="31.45" y2="1.22" xlink:href="#linear-gradient"/><linearGradient id="linear-gradient-5" x1="51.45" y1="9.66" x2="51.45" y2="1.16" xlink:href="#linear-gradient"/><linearGradient id="linear-gradient-6" x1="61.45" y1="13.97" x2="61.45" y2="1.16" xlink:href="#linear-gradient"/><linearGradient id="linear-gradient-7" x1="81.45" y1="13.97" x2="81.45" y2="1.16" xlink:href="#linear-gradient"/><linearGradient id="linear-gradient-8" x1="71.45" y1="9.66" x2="71.45" y2="1.16" xlink:href="#linear-gradient"/><linearGradient id="linear-gradient-9" x1="71.45" y1="9.41" x2="71.45" y2="0.91" xlink:href="#linear-gradient"/><linearGradient id="linear-gradient-10" x1="81.45" y1="13.72" x2="81.45" y2="0.91" xlink:href="#linear-gradient"/><linearGradient id="linear-gradient-11" x1="101.45" y1="13.72" x2="101.45" y2="0.91" xlink:href="#linear-gradient"/><linearGradient id="linear-gradient-12" x1="91.45" y1="9.41" x2="91.45" y2="0.91" xlink:href="#linear-gradient"/><linearGradient id="linear-gradient-13" x1="111.45" y1="10.13" x2="111.45" y2="1.34" xlink:href="#linear-gradient"/><linearGradient id="linear-gradient-14" x1="61.5" y1="33" x2="61.5" y2="0" xlink:href="#linear-gradient"/><linearGradient id="linear-gradient-15" x1="10.04" y1="24.18" x2="10.04" y2="11.34" gradientTransform="translate(19.78 -0.16) rotate(57.99)" xlink:href="#linear-gradient"/></defs><title>Artboard 9</title><g id="Ruler"><line class="cls-1" x1="11.45" y1="2.72" x2="11.45" y2="8.22"/><line class="cls-2" x1="21.45" y1="2.72" x2="21.45" y2="12.53"/><line class="cls-3" x1="41.45" y1="2.72" x2="41.45" y2="12.53"/><line class="cls-4" x1="31.45" y1="2.72" x2="31.45" y2="8.22"/><line class="cls-5" x1="51.45" y1="2.66" x2="51.45" y2="8.16"/><line class="cls-6" x1="61.45" y1="2.66" x2="61.45" y2="12.47"/><line class="cls-7" x1="81.45" y1="2.66" x2="81.45" y2="12.47"/><line class="cls-8" x1="71.45" y1="2.66" x2="71.45" y2="8.16"/><line class="cls-9" x1="71.45" y1="2.41" x2="71.45" y2="7.91"/><line class="cls-10" x1="81.45" y1="2.41" x2="81.45" y2="12.22"/><line class="cls-11" x1="101.45" y1="2.41" x2="101.45" y2="12.22"/><line class="cls-12" x1="91.45" y1="2.41" x2="91.45" y2="7.91"/><line class="cls-13" x1="111.45" y1="2.84" x2="111.45" y2="8.63"/><rect class="cls-14" x="1.5" y="1.5" width="120" height="30" rx="2" ry="2"/><circle class="cls-15" cx="10.04" cy="17.76" r="4.92" transform="translate(-10.34 16.86) rotate(-57.99)"/></g></svg>