<svg id="Layer_1" data-name="Layer 1" xmlns="http://www.w3.org/2000/svg" xmlns:xlink="http://www.w3.org/1999/xlink" viewBox="0 0 353.58 210.93">
    <title>Free Delivery</title>
    <g id="free_delivery" data-name="free delivery" fill="#000000">
        <path d="M353.58,119a18.19,18.19,0,0,0-5.14-13.09Q321.5,76.56,294.78,47c-4.24-4.69-9.13-7.08-15.67-7-15.23.22-30.47,0-45.71.13-3.1,0-4-.95-4.31-4a25.32,25.32,0,0,0-1.73-7.32C222.46,17.15,213,12.68,201,12.69H159.32c0,1.05,0,2.1,0,3.14,0,2.62,0,5.37-.28,8.08h41.23c7.4,0,13.89,1.77,16.65,10.18a18.18,18.18,0,0,1,.86,5.59c.14,27.29,0,54.58.17,81.87a4,4,0,0,1-.64,2.59c0,2.21.07,4.41.09,6.6s0,4.26,0,6.42c.51.65.52,1.86.52,4.12,0,10.27-.08,20.54.06,30.81,0,2.86-.67,4-3.88,4q-45.31-.17-90.62,0c-2.35,0-3.73-.35-4.39-3a30.88,30.88,0,0,0-30-23.25C75,149.6,62.31,158.67,58.64,172c-.92,3.33-2.41,4-5.62,4C42,175.86,30.9,176,19.84,176c-1.28,0-6.18-2.77-6.49-6.31a4.06,4.06,0,0,1,0-1c.1-.64-1.64-28.32.46-39.4.44-2.33,1.29-5.17,3.62-6.6,1.34-.82,2.69-.88,2.66-1.14s-1.23-.53-9.2-.32c-4,.11-7.29.27-9.43.39.62,19.73.44,31.27-.12,38.18-.06.75.24,5.2.48,11.07.1,2.39.39,7.57,4,11.44,2.92,3.15,7.35,4.87,12.91,4.9,11.85.06,23.7.09,35.55,0,2.75,0,4.06.69,5,3.4,4,12.11,15.75,20.2,29.11,20.39s25.61-7.88,29.8-20c1-3,2.51-3.76,5.57-3.75q71.69.13,143.39,0c3.11,0,4.51.85,5.57,3.79,4.45,12.36,16,20.07,29.33,20s25.24-8.1,29.49-20.46c.86-2.51,2-3.32,4.65-3.34,11.92-.06,17.32-5.47,17.33-17.12C353.54,153,353.44,136,353.58,119Zm-265,82c-11.65.09-21.15-9.91-19.82-21.59a19.61,19.61,0,0,1,17.43-17c11.92-1.29,22.14,7.8,22.18,19.12C108.37,192.13,99.44,200.9,88.54,201ZM300.79,75.14a5.65,5.65,0,0,1,3.72,1.45c9.57,10.36,19,20.82,28.49,31.26a5.74,5.74,0,0,1,.48,1.26c-1.5.09-2.63.2-3.76.21q-29.86,0-59.71,0a5.24,5.24,0,0,1-5.3-5.16c0-8.36.09-16.72-.05-25.08-.05-3,1.17-4,4.13-4C279.46,75.12,290.13,75,300.79,75.14ZM301.58,201c-10.85-.06-19.85-8.9-19.81-19.45s9-19.29,20-19.25a19.36,19.36,0,1,1-.16,38.7Zm40.11-29.5c0,4.93-1.07,5.8-5.89,5.82-2.29,0-3.11-.9-3.7-2.93-4.54-15.59-17.23-24.31-33.54-23.18-12.34.85-24.29,10.58-27.12,22.42-.76,3.18-1.92,4.07-6.34,3.59a131.5,131.5,0,0,0-28.75-.16c-5.68.62-7.28.4-7.27-3.39q.13-58.79.07-117.58c0-1,.17-2,.31-3.46h4.73c14.22,0,28.43.15,42.65-.09a12.68,12.68,0,0,1,10.3,4.83c1.44,1.88,3.18,3.59,5.17,5.84a31,31,0,0,1-3.39.44c-6.77,0-13.55-.05-20.32,0A15.58,15.58,0,0,0,253,78.88q-.15,13.3,0,26.6c.1,9.74,5.6,15,15.59,15.05q34,.06,68,0h4.8c.13,1.55.3,2.65.3,3.75Q341.71,147.9,341.69,171.49Z" />
        <path d="M12,83.24a44,44,0,0,1,9.69,1.43A22.21,22.21,0,0,1,15.62,79a23.53,23.53,0,0,1-4.06-10c-1.61-8.74-5.74-31.23,6-40.73,5-4,11-4.33,13.57-4.33H43.94q0-1.26,0-2.51a84.5,84.5,0,0,1,.34-8.72l-14,0C20.68,12.74,13,16,8,21.66,3.77,26.58,2.7,32.31,1.87,39.56a219.62,219.62,0,0,0-.37,44.59A44,44,0,0,1,12,83.24Z" />
        <path d="M47.4,38.67V0H71.84V6H54.43v9.88H69.89v6H54.43V38.67Z" />
        <path d="M93,15.57A21.61,21.61,0,0,0,90.73,15a17.08,17.08,0,0,0-3.43-.31,13.64,13.64,0,0,0-2.37.22,14.42,14.42,0,0,0-1.76.39V38.67H76.41V10.88A37.29,37.29,0,0,1,81.3,9.51a30.48,30.48,0,0,1,6.5-.64q.67,0,1.56.08t1.78.22q.89.14,1.73.33t1.34.36Z" />
        <path d="M97.28,24.21a18.33,18.33,0,0,1,1.14-6.75,14.16,14.16,0,0,1,3-4.83,12.58,12.58,0,0,1,4.35-2.9,13.49,13.49,0,0,1,5-1q6,0,9.4,3.74t3.38,11.16q0,.56,0,1.26t-.08,1.26H104.26a7.69,7.69,0,0,0,2.48,5.44q2.2,1.92,6.39,1.92a21,21,0,0,0,4.49-.45,18.51,18.51,0,0,0,3.21-.95l.89,5.52a10.71,10.71,0,0,1-1.53.59,21.61,21.61,0,0,1-2.23.56q-1.25.25-2.71.42a25.81,25.81,0,0,1-3,.17,17.9,17.9,0,0,1-6.7-1.14,12.46,12.46,0,0,1-4.69-3.18,13,13,0,0,1-2.73-4.8A19.58,19.58,0,0,1,97.28,24.21Zm19.58-3a8.88,8.88,0,0,0-.39-2.65,6.4,6.4,0,0,0-1.14-2.18,5.42,5.42,0,0,0-1.84-1.45,5.88,5.88,0,0,0-2.59-.53,6,6,0,0,0-2.73.59,6.22,6.22,0,0,0-2,1.53,7,7,0,0,0-1.25,2.18,11.72,11.72,0,0,0-.61,2.51Z" />
        <path d="M129.14,24.21a18.33,18.33,0,0,1,1.14-6.75,14.16,14.16,0,0,1,3-4.83,12.58,12.58,0,0,1,4.35-2.9,13.49,13.49,0,0,1,5-1q6,0,9.4,3.74t3.38,11.16q0,.56,0,1.26t-.08,1.26H136.11a7.69,7.69,0,0,0,2.48,5.44q2.2,1.92,6.39,1.92a21,21,0,0,0,4.49-.45,18.51,18.51,0,0,0,3.21-.95l.89,5.52a10.71,10.71,0,0,1-1.53.59,21.61,21.61,0,0,1-2.23.56q-1.25.25-2.71.42a25.81,25.81,0,0,1-3,.17,17.9,17.9,0,0,1-6.7-1.14,12.46,12.46,0,0,1-4.69-3.18,13,13,0,0,1-2.73-4.8A19.58,19.58,0,0,1,129.14,24.21Zm19.58-3a8.88,8.88,0,0,0-.39-2.65,6.4,6.4,0,0,0-1.14-2.18,5.42,5.42,0,0,0-1.84-1.45,5.88,5.88,0,0,0-2.59-.53A6,6,0,0,0,140,15a6.22,6.22,0,0,0-2,1.53,7,7,0,0,0-1.25,2.18,11.72,11.72,0,0,0-.61,2.51Z" />
        <path style="stroke:#fff;stroke-miterlimit:10;stroke-width:3px;" d="M32.68,102.78a23.44,23.44,0,0,1-1.49,8.73A16.51,16.51,0,0,1,27,117.71a17.26,17.26,0,0,1-6.57,3.68,28.5,28.5,0,0,1-8.51,1.2q-2.23,0-5-.2a32.4,32.4,0,0,1-5.36-.81V84a30.7,30.7,0,0,1,5.41-.78q2.86-.17,5.09-.17a29.32,29.32,0,0,1,8.43,1.14A17.1,17.1,0,0,1,27,87.8a16,16,0,0,1,4.22,6.14A23.78,23.78,0,0,1,32.68,102.78ZM8.18,116.34q.58.06,1.54.08t2.6,0q6.73,0,10-3.6t3.31-10.07q0-6.58-3.23-10.1t-10-3.51a37,37,0,0,0-4.24.17Z" />
        <path d="M38.14,107.69a19.19,19.19,0,0,1,1.09-6.75,14.3,14.3,0,0,1,2.89-4.83,11.93,11.93,0,0,1,4.14-2.9,12.26,12.26,0,0,1,4.77-1A11.15,11.15,0,0,1,60,96q3.21,3.74,3.21,11.16,0,.56,0,1.26t-.08,1.26H44.77a7.87,7.87,0,0,0,2.36,5.44A8.67,8.67,0,0,0,53.2,117a19,19,0,0,0,4.27-.45,16.93,16.93,0,0,0,3-.95l.85,5.52a9.9,9.9,0,0,1-1.46.59,19.71,19.71,0,0,1-2.12.56q-1.19.25-2.57.42a23.33,23.33,0,0,1-2.81.17A16.26,16.26,0,0,1,46,121.72a11.83,11.83,0,0,1-4.45-3.18,13.21,13.21,0,0,1-2.6-4.8A20.53,20.53,0,0,1,38.14,107.69Zm18.61-3a9.33,9.33,0,0,0-.37-2.65,6.52,6.52,0,0,0-1.09-2.18,5.2,5.2,0,0,0-1.75-1.45,5.35,5.35,0,0,0-2.47-.53,5.5,5.5,0,0,0-2.6.59A6,6,0,0,0,46.6,100a7.11,7.11,0,0,0-1.19,2.18,12.3,12.3,0,0,0-.58,2.51Z" />
        <path d="M79.61,122.7a16.63,16.63,0,0,1-4.75-.67,7.2,7.2,0,0,1-3-1.76,6.3,6.3,0,0,1-1.56-2.85,15.19,15.19,0,0,1-.45-3.88V80l6.42-1.12v33.42a9.7,9.7,0,0,0,.19,2.06,3.37,3.37,0,0,0,.66,1.42,3,3,0,0,0,1.3.89,9.7,9.7,0,0,0,2.09.47Z" />
        <path d="M92.86,84.43a4,4,0,0,1-1.17,3,3.86,3.86,0,0,1-2.76,1.12,3.92,3.92,0,0,1-2.81-1.12,4,4,0,0,1-1.17-3,4,4,0,0,1,1.17-3.07,3.92,3.92,0,0,1,2.81-1.12,3.86,3.86,0,0,1,2.76,1.12A4,4,0,0,1,92.86,84.43Zm-.69,37.72H85.76V93h6.42Z" />
        <path d="M107.49,122.14q-2.66-5.75-5.46-13.2T96.94,93h6.84q.58,2.46,1.36,5.27t1.65,5.64q.88,2.82,1.81,5.47t1.73,4.77q.8-2.12,1.7-4.77t1.78-5.47q.88-2.82,1.68-5.64T116.88,93h6.63q-2.29,8.54-5.08,16T113,122.14Z" />
        <path d="M126.06,107.69a19.19,19.19,0,0,1,1.09-6.75A14.3,14.3,0,0,1,130,96.11a11.93,11.93,0,0,1,4.14-2.9,12.26,12.26,0,0,1,4.77-1A11.15,11.15,0,0,1,147.88,96q3.21,3.74,3.21,11.16,0,.56,0,1.26t-.08,1.26H132.69a7.87,7.87,0,0,0,2.36,5.44,8.67,8.67,0,0,0,6.07,1.92,19,19,0,0,0,4.27-.45,16.93,16.93,0,0,0,3-.95l.85,5.52a9.9,9.9,0,0,1-1.46.59,19.72,19.72,0,0,1-2.12.56q-1.19.25-2.57.42a23.33,23.33,0,0,1-2.81.17,16.26,16.26,0,0,1-6.36-1.14,11.83,11.83,0,0,1-4.45-3.18,13.21,13.21,0,0,1-2.6-4.8A20.53,20.53,0,0,1,126.06,107.69Zm18.61-3a9.33,9.33,0,0,0-.37-2.65,6.52,6.52,0,0,0-1.09-2.18,5.2,5.2,0,0,0-1.75-1.45,5.35,5.35,0,0,0-2.47-.53,5.5,5.5,0,0,0-2.6.59,6,6,0,0,0-1.88,1.53,7.11,7.11,0,0,0-1.19,2.18,12.3,12.3,0,0,0-.58,2.51Z" />
        <path d="M173.68,99a19.7,19.7,0,0,0-2.2-.59,15.45,15.45,0,0,0-3.26-.31,12.35,12.35,0,0,0-2.25.22,13.1,13.1,0,0,0-1.67.39v23.38h-6.42V94.36A34.07,34.07,0,0,1,162.51,93a27.57,27.57,0,0,1,6.18-.64q.64,0,1.48.08t1.7.22q.85.14,1.64.33t1.27.36Z" />
        <path d="M202.84,93a220.27,220.27,0,0,1-10,30.13,30.84,30.84,0,0,1-2.18,4.3,12.59,12.59,0,0,1-2.49,3,8.75,8.75,0,0,1-3.08,1.7,14.06,14.06,0,0,1-6.87.2,9.57,9.57,0,0,1-2.2-.73l1.17-5.41a10,10,0,0,0,3.78.78,5.69,5.69,0,0,0,3.92-1.26,10.33,10.33,0,0,0,2.48-3.88q-3-6.14-5.83-13.39a152.35,152.35,0,0,1-5-15.4h6.84q.53,2.34,1.3,5.08t1.68,5.55q.9,2.82,1.91,5.61t2,5.19q1.69-5,3.17-10.57T196.21,93Z" />
    </g>
</svg>
