<svg id="Layer_1" data-name="Layer 1" xmlns="http://www.w3.org/2000/svg" xmlns:xlink="http://www.w3.org/1999/xlink"
viewBox="0 0 400 231.28">
    <defs>
        <style>
        .cls-1{fill: #000000;}
        .cls-2{fill: #000000;}
        .cls-3{fill: #000000;}
        .cls-4{fill: #000000;}
        .cls-5{fill: #000000;}
        .cls-6{fill: #000000;}
        .cls-7{fill: #000000;}
        .cls-8{fill: #000000;}
        .cls-9{fill: #000000;}
        .cls-10{fill: #000000;}
        .cls-11{fill: #000000;}
        </style>
    </defs>
    <title>48h dispatch</title>
    <g id="dispatch">
        <!-- <path class="cls-1" d="M90,4.86V29.95h4.57v5.8H90v9.73H83.11V35.75H65.29v-5a64.79,64.79,0,0,1,3.14-5.92q2-3.34,4.37-6.86T77.89,11a78.7,78.7,0,0,1,5.39-6.15ZM83.11,13.6q-1.41,1.7-2.9,3.63t-2.9,4q-1.41,2.11-2.7,4.31t-2.34,4.37H83.11Z" /> -->
        <!-- <path class="cls-2" d="M127.12,34.57a12.36,12.36,0,0,1-.88,4.69A10.08,10.08,0,0,1,123.6,43a12.31,12.31,0,0,1-4.37,2.46,18.78,18.78,0,0,1-6,.88,17.11,17.11,0,0,1-6.62-1.11,12.07,12.07,0,0,1-4.22-2.81,10.24,10.24,0,0,1-2.26-3.66A11.46,11.46,0,0,1,99.46,35a10.23,10.23,0,0,1,.5-3.25A10.69,10.69,0,0,1,101.33,29a15,15,0,0,1,2-2.31,17.58,17.58,0,0,1,2.34-1.88,13.63,13.63,0,0,1-4-4.07,10.24,10.24,0,0,1-1.32-5.36,10.78,10.78,0,0,1,.91-4.37,10.93,10.93,0,0,1,2.61-3.66A12.72,12.72,0,0,1,108,4.86a14.56,14.56,0,0,1,5.33-.94,15.53,15.53,0,0,1,5.89,1,11.73,11.73,0,0,1,4,2.58A9.76,9.76,0,0,1,125.42,11a11,11,0,0,1,.7,3.75,9.66,9.66,0,0,1-1.76,5.71,14.63,14.63,0,0,1-4,4,14.21,14.21,0,0,1,5.13,4.34A10.08,10.08,0,0,1,127.12,34.57Zm-20.69.35a5.64,5.64,0,0,0,.35,1.88A4.82,4.82,0,0,0,108,38.62,6.67,6.67,0,0,0,110.06,40a8.14,8.14,0,0,0,3.22.56,8.91,8.91,0,0,0,3-.47,5.89,5.89,0,0,0,2.11-1.26A5.17,5.17,0,0,0,119.68,37a5.57,5.57,0,0,0,.41-2.08,6.11,6.11,0,0,0-.64-2.87,6.41,6.41,0,0,0-1.85-2.14,12.73,12.73,0,0,0-2.84-1.58,29.54,29.54,0,0,0-3.63-1.2,11.53,11.53,0,0,0-3.4,3.25A7.9,7.9,0,0,0,106.43,34.93Zm12.78-20a5,5,0,0,0-.32-1.67,4.66,4.66,0,0,0-1.05-1.67,6,6,0,0,0-4.54-1.82,6.81,6.81,0,0,0-2.72.5,5.22,5.22,0,0,0-1.85,1.29,5.61,5.61,0,0,0-1.05,1.7,4.93,4.93,0,0,0-.35,1.79A6.47,6.47,0,0,0,109,19.22a11.39,11.39,0,0,0,5.6,3.17,11.61,11.61,0,0,0,3.4-3.08A7.45,7.45,0,0,0,119.21,14.88Z" /> -->
        <path class="cls-3"
        d="M132.11,45.47V1.17L139.2,0V15.18a19,19,0,0,1,2.72-.7,16.56,16.56,0,0,1,3.08-.29,15.85,15.85,0,0,1,6.12,1,9.65,9.65,0,0,1,3.9,2.87,11.18,11.18,0,0,1,2.08,4.42,24.77,24.77,0,0,1,.62,5.74V45.47h-7.09V29.36a23.32,23.32,0,0,0-.32-4.19,7.44,7.44,0,0,0-1.05-2.81,4.24,4.24,0,0,0-2-1.58,8.18,8.18,0,0,0-3-.5,14.63,14.63,0,0,0-2.87.29,20,20,0,0,0-2.17.53V45.47Z" />
        <path class="cls-4"
        d="M34.46,101.26a23.53,23.53,0,0,1-1.64,9.17,17.34,17.34,0,0,1-4.66,6.5,19.37,19.37,0,0,1-7.27,3.87,33,33,0,0,1-9.41,1.26q-2.46,0-5.57-.2A37.47,37.47,0,0,1,0,121V81.57a35.6,35.6,0,0,1,6-.82q3.16-.18,5.63-.18a34,34,0,0,1,9.32,1.2,19.21,19.21,0,0,1,7.24,3.75A16.84,16.84,0,0,1,32.82,92,23.87,23.87,0,0,1,34.46,101.26ZM7.38,115.5q.64.06,1.7.09t2.87,0q7.44,0,11.1-3.78t3.66-10.58q0-6.91-3.57-10.61T12.07,87a43,43,0,0,0-4.69.18Z" />
        <path class="cls-5"
        d="M400,134.74A19.39,19.39,0,0,0,394.74,121Q367.18,90.15,339.85,59.1c-4.34-4.93-9.34-7.43-16-7.33-15.58.23-31.17,0-46.76.14-3.1,0-4.06-.95-4.38-4a30.53,30.53,0,0,0-2.52-9.57,26.09,26.09,0,0,0-7.71-9.87c-7-5.32-15.32-5.41-18.57-5.44-28.3-.27-82.89-.73-82.93-.28a47.1,47.1,0,0,0,.08,5.8c.1,2.6.26,4.79.4,6.4,41.51-.09,71.83.07,81.79-.15,2.39-.05,8.19-.1,12.5,3.52a15,15,0,0,1,4.53,7.18,19.52,19.52,0,0,1,.88,5.86c.14,28.67,0,57.33.18,86a6.89,6.89,0,0,1-.13,1.45c.06,2.52.08,5,.1,7.54q0,2,0,4c0,1.91,0,3.83-.07,5.78,0,.56,0,1.21,0,2,0,10.79-.09,21.58.06,32.36,0,3-.69,4.16-4,4.15q-46.35-.18-92.69,0c-2.41,0-3.81-.37-4.49-3.14a31.95,31.95,0,0,0-61.83-1c-.94,3.5-2.47,4.25-5.75,4.19-11.31-.18-22.62,0-33.94-.08A6.65,6.65,0,0,1,52,187.91c0-8.51,0-17,0-25.81-.28-4.94-.33-9.9-.37-14.79s.06-9.83.38-14.82q0-39.58,0-79.17c0-9,2.86-14.51,9-17q0-1.7,0-3.38c0-2.94,0-6,.11-9C48.23,26.94,40.28,36.92,40.23,51.28q-.23,68.94,0,137.88c0,10.78,6.59,17.11,17.29,17.16,12.12.06,24.25.1,36.37,0,2.82,0,4.16.73,5.07,3.57,4.09,12.72,16.12,21.22,29.78,21.41s26.2-8.28,30.48-21.05c1.07-3.19,2.57-3.95,5.69-3.94q73.34.14,146.67,0c3.18,0,4.62.89,5.7,4a31.13,31.13,0,0,0,30,21,31.61,31.61,0,0,0,30.17-21.49c.88-2.63,2-3.49,4.76-3.51,12.19-.06,17.72-5.74,17.73-18C400,170.44,399.86,152.59,400,134.74ZM49.85,121.86H42.53V90.22h7.32Zm-.54-37.63a4.52,4.52,0,0,1-3.15,1.21A4.6,4.6,0,0,1,43,84.23,4.2,4.2,0,0,1,41.62,81,4.27,4.27,0,0,1,43,77.63a4.6,4.6,0,0,1,3.21-1.21,4.53,4.53,0,0,1,3.15,1.21A4.28,4.28,0,0,1,50.64,81,4.2,4.2,0,0,1,49.31,84.23ZM129.2,219.46A20.32,20.32,0,1,1,149.45,199,20.41,20.41,0,0,1,129.2,219.46ZM346.31,87.29a5.7,5.7,0,0,1,3.8,1.53c9.79,10.88,19.45,21.87,29.14,32.84a6.13,6.13,0,0,1,.49,1.32c-1.54.09-2.69.22-3.84.22q-30.54,0-61.08,0a5.43,5.43,0,0,1-5.42-5.42c0-8.78.09-17.57-.05-26.35-.05-3.15,1.19-4.25,4.22-4.23C324.49,87.27,335.4,87.17,346.31,87.29Zm.8,132.18a20.32,20.32,0,1,1,.17-40.65,20.32,20.32,0,0,1-.17,40.65Zm41-31c0,5.18-1.1,6.09-6,6.11-2.34,0-3.18-.95-3.78-3.08-4.64-16.37-17.63-25.53-34.3-24.35-12.63.9-24.85,11.12-27.75,23.55-.78,3.34-2,4.28-6.48,3.77a131.08,131.08,0,0,0-29.41-.16c-5.81.66-7.44.42-7.43-3.56q.13-61.75.07-123.5c0-1,.17-2.07.31-3.63h4.84c14.54,0,29.09.16,43.62-.1a12.84,12.84,0,0,1,10.54,5.07c1.47,2,3.25,3.77,5.29,6.14a30.92,30.92,0,0,1-3.47.46c-6.93,0-13.86-.05-20.78,0a16.15,16.15,0,0,0-15.94,16q-.16,14,0,27.94c.11,10.23,5.73,15.79,15.95,15.81q34.77.06,69.54,0h1.22a4,4,0,0,1,4,3.91v0Q388.17,163.71,388.15,188.49Z" />
        <path class="cls-6"
        d="M66,116.5a9.32,9.32,0,0,0,4.1-.67,2.39,2.39,0,0,0,1.29-2.31A3,3,0,0,0,70.06,111a20.22,20.22,0,0,0-4.54-2.17A36,36,0,0,1,62,107.32a12.09,12.09,0,0,1-2.78-1.85,7.55,7.55,0,0,1-1.85-2.55,8.88,8.88,0,0,1-.67-3.66,8,8,0,0,1,3.11-6.65q3.11-2.43,8.44-2.43a26,26,0,0,1,5.16.5,25.18,25.18,0,0,1,3.69,1l-1.29,5.74a17.41,17.41,0,0,0-3-1A18.08,18.08,0,0,0,68.56,96a7.35,7.35,0,0,0-3.52.73A2.41,2.41,0,0,0,63.7,99a3.24,3.24,0,0,0,.26,1.35,2.89,2.89,0,0,0,.91,1.08,9.24,9.24,0,0,0,1.7,1,25.93,25.93,0,0,0,2.58,1,39.34,39.34,0,0,1,4.28,1.85,11.59,11.59,0,0,1,2.9,2.05A7,7,0,0,1,78,109.93a10.41,10.41,0,0,1,.53,3.52,7.57,7.57,0,0,1-3.25,6.65Q72,122.35,66,122.36a25.48,25.48,0,0,1-6.5-.67A33.47,33.47,0,0,1,56,120.6l1.23-5.92A31.67,31.67,0,0,0,61,115.91,19.47,19.47,0,0,0,66,116.5Z" />
        <path class="cls-7"
        d="M112.75,106.3a21.7,21.7,0,0,1-.91,6.45,15,15,0,0,1-2.61,5,11.57,11.57,0,0,1-4.25,3.28,13.66,13.66,0,0,1-5.77,1.17,14.26,14.26,0,0,1-4-.53,14.82,14.82,0,0,1-3-1.17v11.9H85.15V91.94q2.17-.58,5.33-1.11a40.65,40.65,0,0,1,6.68-.53,17.9,17.9,0,0,1,6.5,1.11,13.57,13.57,0,0,1,4.89,3.19,14.08,14.08,0,0,1,3.11,5A19.24,19.24,0,0,1,112.75,106.3Zm-7.27.12q0-4.75-2.14-7.38t-6.89-2.64q-1,0-2.08.09a11.42,11.42,0,0,0-2.14.38v17.52a10.93,10.93,0,0,0,2.49,1.2,9.73,9.73,0,0,0,3.31.56,6.34,6.34,0,0,0,5.66-2.64A12.46,12.46,0,0,0,105.48,106.42Z" />
        <path class="cls-8"
        d="M130.27,90.18a17.36,17.36,0,0,1,5.92.88A9.47,9.47,0,0,1,140,93.52a9.23,9.23,0,0,1,2.05,3.84,18.8,18.8,0,0,1,.62,5v18.58q-1.64.35-5,.85a50.72,50.72,0,0,1-7.47.5,22.44,22.44,0,0,1-5-.53,10.57,10.57,0,0,1-3.9-1.7,8,8,0,0,1-2.52-3,10.56,10.56,0,0,1-.91-4.63,8.93,8.93,0,0,1,1-4.45,8.41,8.41,0,0,1,2.78-3,12,12,0,0,1,4.07-1.64,22.94,22.94,0,0,1,4.83-.5,22,22,0,0,1,2.46.15,23.16,23.16,0,0,1,2.75.5v-1.17a9.2,9.2,0,0,0-.29-2.34,4.88,4.88,0,0,0-1-2,4.82,4.82,0,0,0-1.93-1.32,8.38,8.38,0,0,0-3-.47,26.72,26.72,0,0,0-4.51.35,19.82,19.82,0,0,0-3.34.82l-.88-5.74a28,28,0,0,1,3.93-.94A30.8,30.8,0,0,1,130.27,90.18Zm.59,26.43a26.41,26.41,0,0,0,5-.35v-7.85a13.83,13.83,0,0,0-1.7-.35,15.86,15.86,0,0,0-2.46-.18,16.37,16.37,0,0,0-2.37.18,7.42,7.42,0,0,0-2.17.64,3.94,3.94,0,0,0-1.55,1.32,3.68,3.68,0,0,0-.59,2.14,3.75,3.75,0,0,0,1.58,3.49A8.17,8.17,0,0,0,130.86,116.61Z" />
        <path class="cls-9"
        d="M151,82.86l7.09-1.17v9.26H169v5.92h-10.9v12.48q0,3.69,1.17,5.27t4,1.58a13,13,0,0,0,3.43-.41,23,23,0,0,0,2.37-.76l1.17,5.63a26.61,26.61,0,0,1-3.22,1.08,17.55,17.55,0,0,1-4.69.56,14.85,14.85,0,0,1-5.48-.88,8.08,8.08,0,0,1-3.49-2.55,10.1,10.1,0,0,1-1.82-4,25.11,25.11,0,0,1-.53-5.42Z" />
        <path class="cls-10"
        d="M173.52,106.3a18.8,18.8,0,0,1,1.06-6.36,15.09,15.09,0,0,1,3-5.13,13.82,13.82,0,0,1,4.78-3.4,15.63,15.63,0,0,1,6.33-1.23,21.46,21.46,0,0,1,8.2,1.58l-1.52,5.8a16.06,16.06,0,0,0-2.78-.88,15,15,0,0,0-3.31-.35A7.76,7.76,0,0,0,183,98.94q-2.17,2.61-2.17,7.35a11.58,11.58,0,0,0,2.05,7.24q2.05,2.67,6.91,2.67a18.14,18.14,0,0,0,3.57-.35,16.82,16.82,0,0,0,3-.88l1,5.86a14.73,14.73,0,0,1-3.55,1.05,25.22,25.22,0,0,1-4.89.47,17.78,17.78,0,0,1-6.83-1.2,12.93,12.93,0,0,1-4.81-3.34,13.83,13.83,0,0,1-2.84-5.1A21.13,21.13,0,0,1,173.52,106.3Z" />
        <path class="cls-11"
        d="M202.88,121.59V77.29L210,76.12V91.3a19,19,0,0,1,2.72-.7,16.56,16.56,0,0,1,3.08-.29,15.85,15.85,0,0,1,6.12,1,9.65,9.65,0,0,1,3.9,2.87,11.18,11.18,0,0,1,2.08,4.42,24.77,24.77,0,0,1,.62,5.74v17.23h-7.09V105.48a23.32,23.32,0,0,0-.32-4.19A7.44,7.44,0,0,0,220,98.48a4.24,4.24,0,0,0-2-1.58,8.18,8.18,0,0,0-3-.5,14.63,14.63,0,0,0-2.87.29,20,20,0,0,0-2.17.53v24.38Z" />
    </g>
</svg>
