<?xml version="1.0" encoding="UTF-8"?>
<svg data-name="Layer 1" version="1.1" viewBox="0 0 353.02 213.58" xmlns="http://www.w3.org/2000/svg" xmlns:cc="http://creativecommons.org/ns#" xmlns:dc="http://purl.org/dc/elements/1.1/" xmlns:rdf="http://www.w3.org/1999/02/22-rdf-syntax-ns#">
 <metadata>
  <rdf:RDF>
   <cc:Work rdf:about="">
    <dc:format>image/svg+xml</dc:format>
    <dc:type rdf:resource="http://purl.org/dc/dcmitype/StillImage"/>
    <dc:title>Delivery duration</dc:title>
   </cc:Work>
  </rdf:RDF>
 </metadata>
 <defs>
  <style>.cls-1{fill: #000000;}
        .cls-2{fill: #000000;}
        .cls-3{stroke:#fff;stroke-miterlimit:10;stroke-width:3px;fill: #000000;}
        .cls-4{fill: #000000;}
        .cls-5{fill: #000000;}
        .cls-6{fill: #000000;}
        .cls-7{fill: #000000;}
        .cls-8{fill: #000000;}
        .cls-9{fill: #000000;}
        .cls-10{fill: #000000;}
        .cls-11{fill: #000000;}
        .cls-12{fill: #000000;}
        .cls-13{fill: #000000;}
        .cls-14{fill: #000000;}
        .cls-15{fill: #000000;}
        .cls-16{fill: #000000;}
        .cls-17{fill: #000000;}
        .cls-18{fill: #000000;}
        .cls-19{fill: #000000;}
        .cls-20{fill: #000000;}
        .cls-21{fill: #000000;}
        .cls-22{fill: #000000;}
        .cls-23{fill: #000000;}
        .cls-24{fill: #000000;}
        .cls-25{fill: #000000;}
        .cls-26{fill: #000000;}
        .cls-27{fill: #000000;}
        .cls-28{fill: #000000;}
        .cls-29{fill: #000000;}</style>
 </defs>
 <title>Delivery duration</title>
 <g id="delivery">
  <path class="cls-1" d="M353,121.67a18.19,18.19,0,0,0-5.14-13.09q-26.94-29.36-53.66-58.92c-4.24-4.69-9.13-7.08-15.67-7-15.23.22-30.47,0-45.71.13-3.1,0-4-.95-4.31-4a25.32,25.32,0,0,0-1.73-7.32C222,20,212.67,15.45,200.84,15.35c.06,1.7.08,3.4.1,5.08,0,2,0,4.06-.14,6.13,7,.17,13,2.15,15.62,10.16a18.17,18.17,0,0,1,.86,5.59c.14,27.29,0,54.58.17,81.87a4,4,0,0,1-.64,2.59c0,2.21.07,4.41.09,6.6s0,4.26,0,6.42c.51.65.52,1.86.52,4.12,0,10.27-.08,20.54.06,30.81,0,2.86-.67,4-3.88,4q-45.31-.17-90.62,0c-2.35,0-3.73-.35-4.39-3a30.88,30.88,0,0,0-30-23.25c-14.09-.16-26.75,8.92-30.42,22.28-.92,3.33-2.41,4-5.62,4-11.06-.17-22.12,0-33.18-.08-1.28,0-6.18-2.77-6.49-6.31a4.06,4.06,0,0,1,0-1c.1-.64-1.64-28.32.46-39.4.44-2.33,1.29-5.17,3.62-6.6,1.34-.82,2.69-.88,2.66-1.14s-1.23-.53-9.2-.32c-4,.11-7.29.27-9.43.39.62,19.73.44,31.27-.12,38.18-.06.75.24,5.2.48,11.07.1,2.39.39,7.57,4,11.44,2.92,3.15,7.35,4.87,12.91,4.9,11.85.06,23.7.09,35.55,0,2.75,0,4.06.69,5,3.4,4,12.11,15.75,20.2,29.11,20.39s25.61-7.88,29.8-20c1-3,2.51-3.76,5.57-3.75q71.69.13,143.39,0c3.11,0,4.51.85,5.57,3.79,4.45,12.36,16,20.07,29.33,20s25.24-8.1,29.49-20.46c.86-2.51,2-3.32,4.65-3.34,11.92-.06,17.32-5.47,17.33-17.12C353,155.66,352.89,138.67,353,121.67Zm-265,82c-11.65.09-21.15-9.91-19.82-21.59a19.61,19.61,0,0,1,17.43-17c11.92-1.29,22.14,7.8,22.18,19.12C107.82,194.78,98.88,203.55,88,203.64ZM300.24,77.79A5.65,5.65,0,0,1,304,79.24c9.57,10.36,19,20.82,28.49,31.26a5.74,5.74,0,0,1,.48,1.26c-1.5.09-2.63.2-3.76.21q-29.86,0-59.71,0a5.24,5.24,0,0,1-5.3-5.16c0-8.36.09-16.72-.05-25.08-.05-3,1.17-4,4.13-4C278.9,77.77,289.57,77.68,300.24,77.79ZM301,203.64c-10.85-.06-19.85-8.9-19.81-19.45s9-19.29,20-19.25a19.36,19.36,0,1,1-.16,38.7Zm40.11-29.5c0,4.93-1.07,5.8-5.89,5.82-2.29,0-3.11-.9-3.7-2.93C327,161.45,314.31,152.73,298,153.85c-12.34.85-24.29,10.58-27.12,22.42-.76,3.18-1.92,4.07-6.34,3.59a131.5,131.5,0,0,0-28.75-.16c-5.68.62-7.28.4-7.27-3.39q.13-58.79.07-117.58c0-1,.17-2,.31-3.46h4.73c14.22,0,28.43.15,42.65-.09A12.68,12.68,0,0,1,286.59,60c1.44,1.88,3.18,3.59,5.17,5.84a31,31,0,0,1-3.39.44c-6.77,0-13.55-.05-20.32,0a15.58,15.58,0,0,0-15.59,15.21q-.15,13.3,0,26.6c.1,9.74,5.6,15,15.59,15.05q34,.06,68,0h4.8c.13,1.55.3,2.65.3,3.75Q341.15,150.55,341.13,174.14Z"/>
  <path class="cls-2" d="m15.06 81.66a23.53 23.53 0 0 1-4.06-10c-1.6-8.77-5.74-31.25 6-40.75a18.33 18.33 0 0 1 5.58-3.06c-0.22-2.72-0.26-5.48-0.28-8.18v-3.58a26.06 26.06 0 0 0-14.81 8.22c-4.28 4.92-5.35 10.69-6.17 17.9a219.62 219.62 0 0 0-0.37 44.59 44 44 0 0 1 20.22 0.52 22.21 22.21 0 0 1-6.11-5.66z"/>
 </g>
 <path class="cls-3" d="M33.26,105.53a23.44,23.44,0,0,1-1.49,8.73,16.51,16.51,0,0,1-4.22,6.19A17.26,17.26,0,0,1,21,124.14a28.5,28.5,0,0,1-8.51,1.2q-2.23,0-5-.2a32.4,32.4,0,0,1-5.36-.81V86.78A30.7,30.7,0,0,1,7.49,86q2.86-.17,5.09-.17A29.32,29.32,0,0,1,21,87a17.1,17.1,0,0,1,6.55,3.57,16,16,0,0,1,4.22,6.14A23.78,23.78,0,0,1,33.26,105.53ZM8.76,119.09q.58.06,1.54.08t2.6,0q6.73,0,10-3.6t3.31-10.07q0-6.58-3.23-10.1T13,91.91a37,37,0,0,0-4.24.17Z"/>
 <path class="cls-4" d="M39.11,110.34a19.19,19.19,0,0,1,1.09-6.75,14.3,14.3,0,0,1,2.89-4.83,11.93,11.93,0,0,1,4.14-2.9,12.26,12.26,0,0,1,4.77-1,11.15,11.15,0,0,1,8.94,3.74q3.21,3.74,3.21,11.16,0,.56,0,1.26T64,112.3H45.73a7.87,7.87,0,0,0,2.36,5.44,8.67,8.67,0,0,0,6.07,1.92,19,19,0,0,0,4.27-.45,16.93,16.93,0,0,0,3-.95l.85,5.52a9.9,9.9,0,0,1-1.46.59,19.72,19.72,0,0,1-2.12.56q-1.19.25-2.57.42a23.33,23.33,0,0,1-2.81.17A16.26,16.26,0,0,1,47,124.38a11.83,11.83,0,0,1-4.45-3.18,13.21,13.21,0,0,1-2.6-4.8A20.53,20.53,0,0,1,39.11,110.34Zm18.61-3a9.33,9.33,0,0,0-.37-2.65,6.52,6.52,0,0,0-1.09-2.18,5.2,5.2,0,0,0-1.75-1.45,5.35,5.35,0,0,0-2.47-.53,5.5,5.5,0,0,0-2.6.59,6,6,0,0,0-1.88,1.53,7.11,7.11,0,0,0-1.19,2.18,12.3,12.3,0,0,0-.58,2.51Z"/>
 <path class="cls-5" d="M80.57,125.35a16.63,16.63,0,0,1-4.75-.67,7.2,7.2,0,0,1-3-1.76,6.3,6.3,0,0,1-1.56-2.85,15.19,15.19,0,0,1-.45-3.88V82.61l6.42-1.12v33.42a9.7,9.7,0,0,0,.19,2.06,3.37,3.37,0,0,0,.66,1.42,3,3,0,0,0,1.3.89,9.7,9.7,0,0,0,2.09.47Z"/>
 <path class="cls-6" d="M93.83,87.08a4,4,0,0,1-1.17,3,3.86,3.86,0,0,1-2.76,1.12,3.92,3.92,0,0,1-2.81-1.12,4,4,0,0,1-1.17-3A4,4,0,0,1,87.09,84a3.92,3.92,0,0,1,2.81-1.12A3.86,3.86,0,0,1,92.66,84,4,4,0,0,1,93.83,87.08Zm-.69,37.72H86.72V95.61h6.42Z"/>
 <path class="cls-7" d="M108.45,124.79Q105.79,119,103,111.6t-5.08-16h6.84q.58,2.46,1.36,5.27t1.65,5.64q.88,2.82,1.81,5.47t1.73,4.77q.8-2.12,1.7-4.77t1.78-5.47q.88-2.82,1.68-5.64t1.38-5.27h6.63q-2.29,8.54-5.08,16t-5.46,13.2Z"/>
 <path class="cls-8" d="M127,110.34a19.19,19.19,0,0,1,1.09-6.75A14.3,14.3,0,0,1,131,98.77a11.93,11.93,0,0,1,4.14-2.9,12.26,12.26,0,0,1,4.77-1,11.15,11.15,0,0,1,8.94,3.74q3.21,3.74,3.21,11.16,0,.56,0,1.26t-.08,1.26H133.65a7.87,7.87,0,0,0,2.36,5.44,8.67,8.67,0,0,0,6.07,1.92,19,19,0,0,0,4.27-.45,16.93,16.93,0,0,0,3-.95l.85,5.52a9.9,9.9,0,0,1-1.46.59,19.72,19.72,0,0,1-2.12.56q-1.19.25-2.57.42a23.33,23.33,0,0,1-2.81.17,16.26,16.26,0,0,1-6.36-1.14,11.83,11.83,0,0,1-4.45-3.18,13.21,13.21,0,0,1-2.6-4.8A20.53,20.53,0,0,1,127,110.34Zm18.61-3a9.33,9.33,0,0,0-.37-2.65,6.52,6.52,0,0,0-1.09-2.18,5.2,5.2,0,0,0-1.75-1.45,5.35,5.35,0,0,0-2.47-.53,5.5,5.5,0,0,0-2.6.59,6,6,0,0,0-1.88,1.53,7.11,7.11,0,0,0-1.19,2.18,12.3,12.3,0,0,0-.58,2.51Z"/>
 <path class="cls-9" d="M174.64,101.7a19.7,19.7,0,0,0-2.2-.59,15.45,15.45,0,0,0-3.26-.31,12.35,12.35,0,0,0-2.25.22,13.1,13.1,0,0,0-1.67.39v23.38h-6.42V97a34.07,34.07,0,0,1,4.64-1.37,27.57,27.57,0,0,1,6.18-.64q.64,0,1.48.08t1.7.22q.85.14,1.64.33t1.27.36Z"/>
 <path class="cls-10" d="M203.81,95.61a220.27,220.27,0,0,1-10,30.13,30.84,30.84,0,0,1-2.18,4.3,12.59,12.59,0,0,1-2.49,3,8.75,8.75,0,0,1-3.08,1.7,14.06,14.06,0,0,1-6.87.2,9.57,9.57,0,0,1-2.2-.73l1.17-5.41a10,10,0,0,0,3.78.78,5.69,5.69,0,0,0,3.92-1.26,10.33,10.33,0,0,0,2.48-3.88q-3-6.14-5.83-13.39a152.35,152.35,0,0,1-5-15.4h6.84q.53,2.34,1.3,5.08t1.68,5.55q.9,2.82,1.91,5.61t2,5.19q1.69-5,3.17-10.57t2.69-10.85Z"/>
 <!-- <path class="cls-11" d="M46.47,18.92H57.29v4.46H46.47Z" /> -->
 <!-- <path class="cls-12" d="M61.83,10.55a30.23,30.23,0,0,0,4.68-2.37,19.47,19.47,0,0,0,4.16-3.42H74.1V32.63H69.23V11.28a15.64,15.64,0,0,1-2.73,1.65,27.72,27.72,0,0,1-3.18,1.33Z" /> -->
 <!-- <path class="cls-13" d="M102.16,18.68q0,7-2.57,10.8a8.62,8.62,0,0,1-14.23,0q-2.57-3.76-2.57-10.8a26.28,26.28,0,0,1,.66-6.21A13.83,13.83,0,0,1,85.37,7.9a8.71,8.71,0,0,1,3.06-2.81,8.37,8.37,0,0,1,4-1,8.16,8.16,0,0,1,7.12,3.76Q102.16,11.64,102.16,18.68Zm-5,0a32.12,32.12,0,0,0-.24-4.06,13.84,13.84,0,0,0-.78-3.28,5.72,5.72,0,0,0-1.43-2.19,3.17,3.17,0,0,0-2.21-.8,3.24,3.24,0,0,0-2.23.8,5.6,5.6,0,0,0-1.45,2.19A13.24,13.24,0,0,0,88,14.61a34.92,34.92,0,0,0-.22,4.06A34.91,34.91,0,0,0,88,22.74,13.23,13.23,0,0,0,88.79,26a5.59,5.59,0,0,0,1.45,2.19,3.23,3.23,0,0,0,2.23.8,3.16,3.16,0,0,0,2.21-.8A5.72,5.72,0,0,0,96.11,26a13.83,13.83,0,0,0,.78-3.28A32.12,32.12,0,0,0,97.14,18.68Z" /> -->
 <path class="cls-14" d="M134.13,32a28.79,28.79,0,0,1-3.64.8,28.25,28.25,0,0,1-4.6.36,12.28,12.28,0,0,1-4.46-.76,9.29,9.29,0,0,1-3.36-2.19,9.64,9.64,0,0,1-2.13-3.46,13.18,13.18,0,0,1-.74-4.56,15.37,15.37,0,0,1,.62-4.52,9.89,9.89,0,0,1,1.83-3.48,8.15,8.15,0,0,1,2.94-2.23,9.55,9.55,0,0,1,4-.78,9.1,9.1,0,0,1,2.69.36,12.07,12.07,0,0,1,2,.8V2.23l4.87-.8Zm-14-9.93a7.64,7.64,0,0,0,1.53,5,5.2,5.2,0,0,0,4.22,1.83,16.73,16.73,0,0,0,2-.1,13.24,13.24,0,0,0,1.35-.22V16.54a7.57,7.57,0,0,0-1.71-.82,6.69,6.69,0,0,0-2.27-.38,4.35,4.35,0,0,0-3.88,1.81A8.62,8.62,0,0,0,120.18,22.05Z"/>
 <path class="cls-15" d="M147.32,11.08a11.9,11.9,0,0,1,4.06.6A6.49,6.49,0,0,1,154,13.37,6.33,6.33,0,0,1,155.42,16a12.9,12.9,0,0,1,.42,3.4V32.15q-1.13.24-3.4.58a34.75,34.75,0,0,1-5.13.34,15.37,15.37,0,0,1-3.46-.36,7.25,7.25,0,0,1-2.67-1.17,5.49,5.49,0,0,1-1.73-2.09,7.25,7.25,0,0,1-.62-3.18,6.13,6.13,0,0,1,.7-3.06,5.78,5.78,0,0,1,1.91-2,8.28,8.28,0,0,1,2.79-1.13,15.75,15.75,0,0,1,3.32-.34,15.1,15.1,0,0,1,1.69.1,15.81,15.81,0,0,1,1.89.34v-.8a6.31,6.31,0,0,0-.2-1.61,3.35,3.35,0,0,0-.7-1.35,3.31,3.31,0,0,0-1.33-.9,5.74,5.74,0,0,0-2.07-.32,18.37,18.37,0,0,0-3.1.24,13.6,13.6,0,0,0-2.29.56l-.6-3.94a19.18,19.18,0,0,1,2.69-.64A21.12,21.12,0,0,1,147.32,11.08Zm.4,18.14a18.1,18.1,0,0,0,3.42-.24V23.58a9.43,9.43,0,0,0-1.17-.24,10.85,10.85,0,0,0-1.69-.12,11.2,11.2,0,0,0-1.63.12,5.07,5.07,0,0,0-1.49.44,2.7,2.7,0,0,0-1.07.9,2.53,2.53,0,0,0-.4,1.47,2.57,2.57,0,0,0,1.09,2.39A5.6,5.6,0,0,0,147.72,29.21Z"/>
 <path class="cls-16" d="M178.44,11.6a153.27,153.27,0,0,1-7.55,21.71,21.84,21.84,0,0,1-1.65,3.1,9.21,9.21,0,0,1-1.89,2.13A6.75,6.75,0,0,1,165,39.77a11.19,11.19,0,0,1-5.21.14,7.54,7.54,0,0,1-1.67-.52l.88-3.9a7.9,7.9,0,0,0,2.87.56,4.46,4.46,0,0,0,3-.9,7.42,7.42,0,0,0,1.88-2.79q-2.3-4.42-4.42-9.65a106,106,0,0,1-3.78-11.1h5.19q.4,1.69,1,3.66t1.27,4q.69,2,1.45,4T169,27q1.28-3.58,2.4-7.62t2-7.82Z"/>
 <path class="cls-17" d="M187.41,29.13a6.4,6.4,0,0,0,2.81-.46,1.64,1.64,0,0,0,.88-1.59,2.06,2.06,0,0,0-.94-1.73A13.9,13.9,0,0,0,187,23.86a24.62,24.62,0,0,1-2.43-1,8.27,8.27,0,0,1-1.91-1.27,5.19,5.19,0,0,1-1.27-1.75,6.09,6.09,0,0,1-.46-2.51,5.48,5.48,0,0,1,2.13-4.56,9.16,9.16,0,0,1,5.79-1.67,17.84,17.84,0,0,1,3.54.34,17.21,17.21,0,0,1,2.53.66L194.08,16a11.94,11.94,0,0,0-2.05-.66,12.4,12.4,0,0,0-2.9-.3,5,5,0,0,0-2.41.5,1.65,1.65,0,0,0-.92,1.55A2.23,2.23,0,0,0,186,18a2,2,0,0,0,.62.74,6.34,6.34,0,0,0,1.17.68,17.84,17.84,0,0,0,1.77.7,27,27,0,0,1,2.94,1.27,8,8,0,0,1,2,1.41,4.82,4.82,0,0,1,1.15,1.79A7.14,7.14,0,0,1,196,27a5.2,5.2,0,0,1-2.23,4.56,11.11,11.11,0,0,1-6.37,1.55,17.45,17.45,0,0,1-4.46-.46,23,23,0,0,1-2.37-.74l.84-4.06a21.78,21.78,0,0,0,2.59.84A13.37,13.37,0,0,0,187.41,29.13Z"/>
 <!-- <path class="cls-18" d="M28.9,32.63A39.36,39.36,0,0,1,30,26.2a56.72,56.72,0,0,1,2.07-6.57,56,56,0,0,1,2.69-6,32.92,32.92,0,0,1,2.92-4.68H24.84V4.76H43.46v3.7a28.44,28.44,0,0,0-2.89,4.06,47.78,47.78,0,0,0-3,5.81,52.58,52.58,0,0,0-2.43,6.94,36.51,36.51,0,0,0-1.27,7.36Z" /> -->
 <path class="cls-19" d="M75.54,53.29a7.49,7.49,0,0,1-.42,2.59,5.6,5.6,0,0,1-1.21,2A5.22,5.22,0,0,1,72,59.11a7,7,0,0,1-2.53.43,17,17,0,0,1-4.68-.66V42l2.76-.46v6.19a6.54,6.54,0,0,1,1.18-.46,5.9,5.9,0,0,1,3.79.24,4.4,4.4,0,0,1,1.66,1.27,5.86,5.86,0,0,1,1,2A8.66,8.66,0,0,1,75.54,53.29Zm-2.83,0a4.9,4.9,0,0,0-.7-2.79,2.47,2.47,0,0,0-2.2-1,4.24,4.24,0,0,0-2.26.66V57a7.65,7.65,0,0,0,.76.13,9.55,9.55,0,0,0,1.13.06,3,3,0,0,0,2.4-1A4.34,4.34,0,0,0,72.71,53.25Z"/>
 <path class="cls-20" d="M88.19,58.89q-.8.21-2.08.42a16.89,16.89,0,0,1-2.81.22,6.2,6.2,0,0,1-2.41-.41A3.87,3.87,0,0,1,79.34,58a4.49,4.49,0,0,1-.83-1.75A9.26,9.26,0,0,1,78.26,54V47.31H81v6.26a5,5,0,0,0,.56,2.74,2.19,2.19,0,0,0,2,.82q.5,0,1.06,0a5.65,5.65,0,0,0,.83-.11V47.31h2.76Z"/>
 <path class="cls-21" d="M94.7,57.26A3.63,3.63,0,0,0,96.3,57a.93.93,0,0,0,.5-.9,1.17,1.17,0,0,0-.54-1,7.9,7.9,0,0,0-1.77-.85,14.13,14.13,0,0,1-1.38-.58A4.71,4.71,0,0,1,92,53a2.94,2.94,0,0,1-.72-1A3.46,3.46,0,0,1,91,50.55,3.11,3.11,0,0,1,92.26,48,5.2,5.2,0,0,1,95.55,47a10.12,10.12,0,0,1,2,.19,9.75,9.75,0,0,1,1.44.38l-.5,2.24a6.71,6.71,0,0,0-1.16-.38,7,7,0,0,0-1.64-.17,2.87,2.87,0,0,0-1.37.29.94.94,0,0,0-.53.88,1.27,1.27,0,0,0,.1.53,1.13,1.13,0,0,0,.35.42,3.62,3.62,0,0,0,.66.39,10.35,10.35,0,0,0,1,.4,15.47,15.47,0,0,1,1.67.72,4.51,4.51,0,0,1,1.13.8,2.73,2.73,0,0,1,.65,1,4.05,4.05,0,0,1,.21,1.37,3,3,0,0,1-1.27,2.59,6.31,6.31,0,0,1-3.62.88,9.93,9.93,0,0,1-2.53-.26,13.13,13.13,0,0,1-1.35-.42l.48-2.31a12.22,12.22,0,0,0,1.47.48A7.59,7.59,0,0,0,94.7,57.26Z"/>
 <path class="cls-22" d="m148.35 57.26a3.63 3.63 0 0 0 1.6-0.26 0.93 0.93 0 0 0 0.5-0.9 1.17 1.17 0 0 0-0.54-1 7.9 7.9 0 0 0-1.77-0.85 14.13 14.13 0 0 1-1.38-0.58 4.71 4.71 0 0 1-1.08-0.72 2.94 2.94 0 0 1-0.72-1 3.46 3.46 0 0 1-0.26-1.43 3.11 3.11 0 0 1 1.2-2.52 5.2 5.2 0 0 1 3.31-1 10.12 10.12 0 0 1 2 0.19 9.75 9.75 0 0 1 1.44 0.38l-0.5 2.24a6.71 6.71 0 0 0-1.16-0.38 7 7 0 0 0-1.64-0.17 2.87 2.87 0 0 0-1.37 0.29 0.94 0.94 0 0 0-0.53 0.88 1.27 1.27 0 0 0 0.1 0.53 1.13 1.13 0 0 0 0.35 0.42 3.62 3.62 0 0 0 0.66 0.39 10.35 10.35 0 0 0 1 0.4 15.47 15.47 0 0 1 1.67 0.72 4.51 4.51 0 0 1 1.13 0.8 2.73 2.73 0 0 1 0.65 1 4.05 4.05 0 0 1 0.21 1.37 3 3 0 0 1-1.27 2.59 6.31 6.31 0 0 1-3.62 0.88 9.93 9.93 0 0 1-2.53-0.26 13.13 13.13 0 0 1-1.35-0.42l0.48-2.31a12.22 12.22 0 0 0 1.47 0.48 7.59 7.59 0 0 0 1.95 0.24z"/>
 <path class="cls-23" d="m105.94 43.81a1.58 1.58 0 0 1-0.5 1.23 1.71 1.71 0 0 1-1.19 0.46 1.74 1.74 0 0 1-1.21-0.46 1.58 1.58 0 0 1-0.5-1.23 1.61 1.61 0 0 1 0.5-1.26 1.74 1.74 0 0 1 1.24-0.45 1.71 1.71 0 0 1 1.19 0.46 1.61 1.61 0 0 1 0.47 1.25zm-0.3 15.44h-2.76v-11.94h2.76z"/>
 <path class="cls-24" d="m109.16 47.7a18.4 18.4 0 0 1 2.08-0.43 17.94 17.94 0 0 1 2.83-0.21 6.52 6.52 0 0 1 2.44 0.4 3.82 3.82 0 0 1 1.56 1.12 4.28 4.28 0 0 1 0.82 1.74 9.7 9.7 0 0 1 0.24 2.23v6.71h-2.75v-6.26a9.07 9.07 0 0 0-0.13-1.63 2.9 2.9 0 0 0-0.41-1.1 1.64 1.64 0 0 0-0.78-0.62 3.27 3.27 0 0 0-1.2-0.19 9.13 9.13 0 0 0-1.1 0.07l-0.84 0.11v9.64h-2.76z"/>
 <path class="cls-25" d="m121.86 53.34a7.51 7.51 0 0 1 0.47-2.76 5.81 5.81 0 0 1 1.24-2 5.15 5.15 0 0 1 1.78-1.19 5.52 5.52 0 0 1 2.06-0.4 4.92 4.92 0 0 1 3.87 1.55 6.62 6.62 0 0 1 1.38 4.57q0 0.23 0 0.51t0 0.51h-7.88a3.15 3.15 0 0 0 1 2.23 3.86 3.86 0 0 0 2.61 0.79 8.59 8.59 0 0 0 1.79-0.15 7.6 7.6 0 0 0 1.31-0.39l0.37 2.26a4.42 4.42 0 0 1-0.63 0.24 9 9 0 0 1-0.91 0.23q-0.51 0.1-1.11 0.17a10.47 10.47 0 0 1-1.21 0.07 7.34 7.34 0 0 1-2.74-0.47 5.11 5.11 0 0 1-1.92-1.3 5.34 5.34 0 0 1-1.12-2 8 8 0 0 1-0.36-2.47zm8-1.23a3.63 3.63 0 0 0-0.16-1.09 2.62 2.62 0 0 0-0.47-0.89 2.22 2.22 0 0 0-0.75-0.59 2.4 2.4 0 0 0-1.06-0.22 2.47 2.47 0 0 0-1.12 0.24 2.55 2.55 0 0 0-0.81 0.63 2.88 2.88 0 0 0-0.51 0.89 4.81 4.81 0 0 0-0.25 1z"/>
 <path class="cls-26" d="m138.17 57.26a3.63 3.63 0 0 0 1.6-0.26 0.93 0.93 0 0 0 0.5-0.9 1.17 1.17 0 0 0-0.54-1 7.9 7.9 0 0 0-1.77-0.85 14.13 14.13 0 0 1-1.38-0.58 4.71 4.71 0 0 1-1.08-0.67 2.94 2.94 0 0 1-0.72-1 3.46 3.46 0 0 1-0.26-1.43 3.11 3.11 0 0 1 1.21-2.57 5.2 5.2 0 0 1 3.29-0.95 10.12 10.12 0 0 1 2 0.19 9.75 9.75 0 0 1 1.44 0.38l-0.5 2.24a6.71 6.71 0 0 0-1.16-0.38 7 7 0 0 0-1.64-0.17 2.87 2.87 0 0 0-1.37 0.29 0.94 0.94 0 0 0-0.53 0.88 1.27 1.27 0 0 0 0.1 0.53 1.13 1.13 0 0 0 0.35 0.42 3.62 3.62 0 0 0 0.66 0.39 10.35 10.35 0 0 0 1 0.4 15.47 15.47 0 0 1 1.67 0.72 4.51 4.51 0 0 1 1.13 0.8 2.73 2.73 0 0 1 0.65 1 4.05 4.05 0 0 1 0.21 1.37 3 3 0 0 1-1.27 2.59 6.31 6.31 0 0 1-3.62 0.88 9.93 9.93 0 0 1-2.53-0.26 13.13 13.13 0 0 1-1.35-0.42l0.48-2.31a12.22 12.22 0 0 0 1.47 0.48 7.59 7.59 0 0 0 1.96 0.19z"/>
 <path class="cls-27" d="M171.13,58.89a17,17,0,0,1-4.68.66,7,7,0,0,1-2.53-.43A5.27,5.27,0,0,1,162,57.87a5.47,5.47,0,0,1-1.21-2,7.49,7.49,0,0,1-.42-2.59,8.73,8.73,0,0,1,.35-2.57,5.62,5.62,0,0,1,1-2,4.62,4.62,0,0,1,1.67-1.27,5.41,5.41,0,0,1,2.26-.45,5.18,5.18,0,0,1,1.53.21,6.84,6.84,0,0,1,1.14.46V42l2.76-.46Zm-7.92-5.64a4.34,4.34,0,0,0,.87,2.87,3,3,0,0,0,2.4,1,9.56,9.56,0,0,0,1.13-.06,7.69,7.69,0,0,0,.76-.13V50.12a4.31,4.31,0,0,0-1-.47,3.81,3.81,0,0,0-1.29-.22,2.47,2.47,0,0,0-2.2,1A4.9,4.9,0,0,0,163.21,53.25Z"/>
 <path class="cls-28" d="M178.62,47a6.76,6.76,0,0,1,2.31.34,3.68,3.68,0,0,1,1.5,1,3.6,3.6,0,0,1,.8,1.5,7.32,7.32,0,0,1,.24,1.93V59q-.64.14-1.93.33a19.72,19.72,0,0,1-2.91.19,8.71,8.71,0,0,1-2-.21,4.13,4.13,0,0,1-1.52-.66,3.12,3.12,0,0,1-1-1.19,4.11,4.11,0,0,1-.35-1.8,3.48,3.48,0,0,1,.4-1.73,3.28,3.28,0,0,1,1.08-1.15,4.7,4.7,0,0,1,1.59-.64,8.94,8.94,0,0,1,1.88-.19,8.55,8.55,0,0,1,1,.06,8.91,8.91,0,0,1,1.07.19v-.46a3.57,3.57,0,0,0-.11-.91,1.9,1.9,0,0,0-.4-.77,1.88,1.88,0,0,0-.75-.51,3.28,3.28,0,0,0-1.18-.18,10.43,10.43,0,0,0-1.76.14,7.72,7.72,0,0,0-1.3.32l-.34-2.24a11,11,0,0,1,1.53-.36A12,12,0,0,1,178.62,47Zm.23,10.3a10.27,10.27,0,0,0,1.94-.14V54.11a5.4,5.4,0,0,0-.66-.14,6.12,6.12,0,0,0-1-.07,6.32,6.32,0,0,0-.92.07,2.87,2.87,0,0,0-.85.25,1.53,1.53,0,0,0-.61.51,1.43,1.43,0,0,0-.23.83,1.46,1.46,0,0,0,.62,1.36A3.18,3.18,0,0,0,178.85,57.31Z"/>
 <path class="cls-29" d="M196.3,47.31A87,87,0,0,1,192,59.64a12.41,12.41,0,0,1-.94,1.76A5.23,5.23,0,0,1,190,62.61a3.83,3.83,0,0,1-1.33.7,6.34,6.34,0,0,1-3,.08,4.28,4.28,0,0,1-.95-.3l.5-2.22a4.49,4.49,0,0,0,1.63.32,2.53,2.53,0,0,0,1.69-.51,4.22,4.22,0,0,0,1.07-1.59q-1.31-2.51-2.51-5.48a60.19,60.19,0,0,1-2.14-6.3h2.95q.23,1,.56,2.08t.72,2.27q.39,1.15.82,2.29t.87,2.12q.73-2,1.36-4.33t1.16-4.44Z"/>
</svg>
