<?xml version="1.0" encoding="UTF-8"?>
<!-- Svg Vector Icons : http://www.onlinewebfonts.com/icon -->
<!DOCTYPE svg PUBLIC "-//W3C//DTD SVG 1.1//EN" "http://www.w3.org/Graphics/SVG/1.1/DTD/svg11.dtd">
<svg xmlns="http://www.w3.org/2000/svg" xmlns:xlink="http://www.w3.org/1999/xlink" version="1.1" x="0px" y="0px" viewBox="0 0 1000 1000" enable-background="new 0 0 1000 1000" xml:space="preserve">
    <metadata> Svg Vector Icons : http://www.onlinewebfonts.com/icon </metadata>
    <g>
        <g transform="translate(0.000000,511.000000) scale(0.100000,-0.100000)">
            <path d="M4133.3,4987.2c-138.3-60.4-243.6-194.8-272.8-346.8c-27.3-150,134.5-378,300.1-424.7c39-9.7,134.4-19.5,212.4-19.5h140.3v-95.5v-95.5l-101.3-13.6c-795-105.2-1591.9-459.8-2229-993.7l-173.4-144.2l-179.3,179.2l-181.2,177.3l77.9,79.9c60.4,62.4,77.9,95.5,77.9,146.1c0,60.4-29.2,95.5-278.6,344.9c-249.4,249.4-284.5,278.6-344.9,278.6c-60.4,0-95.5-29.2-344.9-278.6c-366.3-366.3-366.3-323.4,0-689.8c249.4-249.4,284.5-278.6,344.9-278.6c50.7,0,83.8,17.5,146.1,77.9l79.9,77.9l177.3-181.2l179.3-179.3l-144.2-173.4C1064.5,1768.4,717.7,967.6,616.4,114.2c-29.2-249.4-29.2-744.3,0-993.7c107.2-904.1,465.7-1702.9,1089.2-2421.9c298.1-344.9,847.6-781.3,1227.5-974.2c699.5-356.6,1332.7-514.4,2067.3-514.4c740.4,0,1379.5,159.8,2075.1,520.2c381.9,196.8,904.1,605.9,1186.6,929.4c358.5,411.1,551.4,705.3,754,1149.6c266.9,584.5,389.7,1153.4,391.7,1798.4c0,623.5-105.2,1149.6-344.9,1714.6c-93.5,218.2-245.5,520.2-300.1,594.3c-19.5,27.3-97.4,136.4-173.4,243.5c-74.1,107.2-185.1,251.3-245.5,321.5l-111,124.7l181.2,181.2l179.3,181.2l79.9-77.9c62.4-60.4,95.5-77.9,146.1-77.9c60.4,0,95.5,29.2,348.8,280.6c362.4,364.4,362.4,325.4-13.6,699.5c-356.6,352.7-315.7,354.6-680-11.7c-249.4-249.4-278.6-284.5-278.6-344.9c0-50.7,17.5-83.8,77.9-146.1l77.9-79.9l-181.2-177.3l-179.3-179.2l-173.4,144.2c-455.9,379.9-886.5,619.6-1482.7,822.2c-189,64.3-535.8,144.2-744.3,171.5l-103.3,13.6v93.5v93.5l185.1,7.8c165.6,7.8,192.9,13.6,266.9,66.2c95.5,66.2,161.7,157.8,192.9,259.1c40.9,136.4-40.9,311.7-192.9,420.9l-85.7,58.5l-830,3.9C4367.1,5012.6,4180.1,5008.7,4133.3,4987.2z M5808.9,4605.3v-68.2l-276.7-9.7c-360.5-11.7-362.4-13.6-372.1-292.3l-7.8-194.8h-153.9h-153.9v155.9c0,157.8-31.2,272.8-79.9,304c-15.6,9.7-150,21.4-300.1,27.3c-266.9,9.7-272.8,9.7-278.6,54.6c-15.6,107.2-50.6,101.3,818.3,97.4l804.7-5.8V4605.3z M4825,3535.6c0-198.7,25.3-270.8,111.1-305.9c58.5-25.3,74-25.3,132.5,3.9c83.8,39,107.2,105.2,107.2,305.9v155.9l200.7-11.7c171.5-9.7,493-58.4,512.5-77.9c3.9-1.9-15.6-83.8-40.9-179.3c-27.3-93.5-42.9-192.9-37-218.2c15.6-60.4,97.4-122.7,163.7-122.7c99.4,0,146.1,60.4,194.8,253.3c27.3,103.3,56.5,175.4,70.2,175.4c74,0,650.8-243.6,650.8-272.8c0-7.8-39-83.8-87.7-167.6c-48.7-85.7-87.7-179.2-87.7-208.5c0-111.1,146.1-187.1,253.3-130.5c19.5,9.7,77.9,93.5,128.6,183.1l93.5,163.7l50.7-31.2c62.3-40.9,379.9-278.6,467.6-352.7l66.3-56.5l-140.3-148.1c-161.7-171.5-181.2-239.7-89.6-331.2c91.6-89.6,159.8-72.1,327.4,85.7c77.9,76,146.1,136.4,152,136.4c27.3,0,424.8-528,424.8-565c0-9.7-70.1-56.5-155.9-107.2c-85.7-50.7-165.6-107.2-175.4-126.6c-56.5-107.2,19.5-253.3,130.6-253.3c29.2,0,122.7,39,208.5,87.7c83.8,48.7,159.8,87.7,167.6,87.7c29.2,0,272.8-578.7,272.8-648.8c0-13.6-74-42.9-175.4-70.1c-192.9-50.7-253.3-97.4-253.3-196.8c0-66.2,62.3-148.1,122.7-163.7c25.3-5.9,124.7,9.7,218.2,37c95.5,25.3,177.3,44.8,179.3,40.9c13.7-13.6,62.4-304,74-440.4c5.8-79.9,15.6-175.4,21.4-208.5l9.7-64.3h-163.7c-208.5,0-282.5-25.3-317.6-107.2c-19.5-50.7-21.4-77.9-3.9-126.7c29.2-85.7,113-116.9,317.6-116.9H9094l-9.7-62.4c-5.8-35.1-15.6-130.5-21.4-210.4c-11.7-136.4-60.4-426.7-74-440.4c-2-3.9-83.8,15.6-179.3,40.9c-93.5,27.3-192.9,42.9-218.2,37c-60.4-15.6-122.7-97.4-122.7-163.7c0-99.4,60.4-146.1,253.3-194.8c105.2-29.2,175.4-56.5,175.4-72.1c0-68.2-243.6-648.8-272.8-648.8c-7.8,0-83.8,39-167.6,87.7c-85.7,48.7-179.3,87.7-208.5,87.7c-111.1,0-187.1-146.1-130.6-253.3c9.7-19.5,89.6-76,175.4-126.7c85.7-50.7,155.9-97.4,155.9-107.2c0-37-397.5-565-424.8-565c-5.8,0-74,60.4-152,136.4c-167.6,157.8-235.8,175.4-327.4,85.7c-89.6-91.6-72.1-159.8,85.7-327.4c76-77.9,136.4-146.1,136.4-152c0-27.3-528-424.8-565-424.8c-9.7,0-56.5,70.1-107.2,155.9c-50.7,85.7-107.2,165.6-126.7,175.4c-107.2,56.5-253.3-19.5-253.3-130.5c0-29.2,39-122.7,87.7-208.5c48.7-83.8,87.7-159.8,87.7-167.6c0-29.2-580.6-272.8-648.8-272.8c-15.6,0-42.9,70.1-72.1,175.4c-48.7,192.9-95.5,253.3-194.8,253.3c-66.2,0-148.1-62.4-163.7-122.7c-5.9-25.3,9.7-124.7,37-218.2c25.3-95.5,44.8-177.3,40.9-179.3c-13.6-13.6-304-62.3-440.4-74c-79.9-5.8-175.4-15.6-208.5-21.4l-64.3-9.7v163.7c0,210.4-25.3,282.5-109.1,317.6c-56.5,23.4-76,23.4-132.5,0c-83.8-35.1-109.1-107.2-109.1-317.6v-163.7l-62.4,9.7c-35.1,5.8-130.5,15.6-210.4,21.4c-136.4,11.7-426.7,60.4-440.3,74c-3.9,2,15.6,83.8,40.9,179.3c27.3,93.5,42.9,192.9,37,218.2c-15.6,60.4-97.4,122.7-163.7,122.7c-99.4,0-146.1-60.4-196.8-253.3c-27.3-101.3-56.5-175.4-70.2-175.4c-70.1,0-648.8,243.6-648.8,272.8c0,7.8,39,83.8,87.7,167.6c48.7,85.7,87.7,179.3,87.7,208.5c0,111.1-146.1,187.1-253.3,130.5c-19.5-9.7-76-89.6-126.7-175.4c-50.7-85.7-97.4-155.9-107.2-155.9c-37,0-565,397.5-565,424.8c0,5.8,62.3,74,136.4,152c157.8,167.6,175.4,235.8,85.7,327.4c-91.6,89.6-159.8,72.1-327.3-85.7c-77.9-74-146.1-136.4-152-136.4c-13.6,0-274.7,329.3-362.4,455.9l-77.9,116.9l150,85.7c81.8,46.8,163.7,103.3,183.1,124.7c79.9,93.5,5.9,268.9-116.9,268.9c-29.2,0-122.8-39-208.5-87.7c-83.8-48.7-159.8-87.7-167.6-87.7c-29.2,0-272.8,576.7-272.8,650.8c0,13.6,72.1,42.9,175.4,70.1c192.9,48.7,253.3,95.5,253.3,194.8c0,66.2-62.4,148.1-122.8,163.7c-25.3,5.9-124.7-9.7-218.2-37c-95.5-25.3-177.3-44.8-179.3-40.9c-13.6,13.6-62.3,304-74,440.4c-5.8,79.9-15.6,175.4-21.4,210.4l-9.7,62.4h167.5c99.4,0,192.9,11.7,231.9,27.3c130.5,54.6,130.5,241.6,0,296.2c-39,15.6-132.5,27.3-231.9,27.3H906.7l9.7,64.3c5.8,33.1,15.6,128.6,21.4,208.5c11.7,136.4,60.4,426.7,74,440.4c2,3.9,83.8-15.6,179.3-40.9c93.5-27.3,192.9-42.9,218.2-37c60.4,15.6,122.8,97.4,122.8,163.7c0,99.4-60.4,146.1-253.3,196.8c-99.4,25.3-175.4,56.5-175.4,70.1c0,72.1,243.5,648.8,272.8,648.8c7.8,0,83.8-39,167.6-87.7c85.7-48.7,179.2-87.7,208.5-87.7c111.1,0,187.1,146.1,130.5,253.3c-9.7,19.5-89.6,76-175.4,126.6c-85.7,50.7-155.9,97.4-155.9,107.2c0,37,397.5,565,424.8,565c5.9,0,74.1-62.4,152-136.4c167.5-157.8,235.8-175.4,327.3-85.7c89.6,91.6,72.1,159.8-85.7,327.3c-76,77.9-136.4,146.1-136.4,152c0,27.3,528,424.8,565,424.8c9.7,0,56.5-70.1,107.2-155.9c50.7-85.7,107.2-165.6,126.7-175.4c107.2-56.5,253.3,19.5,253.3,130.5c0,29.2-39,122.7-87.7,208.5c-48.7,83.8-87.7,159.8-87.7,167.6c0,29.2,576.7,272.8,648.8,272.8c13.6,0,44.8-76,70.2-175.4c35.1-132.5,58.4-187.1,95.5-214.3c89.6-70.1,218.2-35.1,259.2,72.1c17.5,44.8-3.9,152-72.1,379.9c-7.8,25.3,11.7,37,93.5,52.6c175.4,37,331.2,56.5,479.3,58.4l140.3,2V3535.6z M1302.2,3539.5l109.1-113l-111-111.1l-113-111l-114.9,116.9l-113,115l105.2,107.2c58.4,58.5,111.1,107.2,116.9,107.2S1241.8,3599.9,1302.2,3539.5z M8936.2,3543.4l105.2-107.2l-115-116.9l-115-115l-111,111l-111.1,111.1l109.1,113c60.4,60.4,115,111.1,120.8,111.1S8877.7,3601.9,8936.2,3543.4z" />

        </g>
    </g>
</svg>
