<?xml version="1.0" encoding="UTF-8" standalone="no"?>
<svg
   xmlns:dc="http://purl.org/dc/elements/1.1/"
   xmlns:cc="http://creativecommons.org/ns#"
   xmlns:rdf="http://www.w3.org/1999/02/22-rdf-syntax-ns#"
   xmlns:svg="http://www.w3.org/2000/svg"
   xmlns="http://www.w3.org/2000/svg"
   viewBox="0 0 479.49332 127.97067"
   height="127.97067"
   width="479.49332"
   xml:space="preserve"
   id="svg2"
   version="1.1"><metadata
     id="metadata8"><rdf:RDF><cc:Work
         rdf:about=""><dc:format>image/svg+xml</dc:format><dc:type
           rdf:resource="http://purl.org/dc/dcmitype/StillImage" /></cc:Work></rdf:RDF></metadata><defs
     id="defs6"><clipPath
       id="clipPath18"
       clipPathUnits="userSpaceOnUse"><path
         id="path16"
         d="M 0,95.978 H 359.62 V 0 H 0 Z" /></clipPath></defs><g
     transform="matrix(1.3333333,0,0,-1.3333333,0,127.97067)"
     id="g10"><g
       id="g12"><g
         clip-path="url(#clipPath18)"
         id="g14"><g
           transform="translate(30.0483,22.0848)"
           id="g20"><path
             id="path22"
             style="fill:#000000;fill-opacity:1;fill-rule:nonzero;stroke:none"
             d="m 0,0 c -1.033,1.658 -2.25,3.451 -3.652,5.377 -1.403,1.927 -2.912,3.869 -4.532,5.826 -1.619,1.956 -3.313,3.832 -5.083,5.628 -1.77,1.795 -3.539,3.381 -5.307,4.758 V 0 h -11.474 v 50.972 h 11.474 V 31.814 c 2.95,3.099 5.947,6.34 8.991,9.724 3.042,3.382 5.854,6.526 8.432,9.434 H 12.465 C 8.996,46.84 5.506,42.868 1.996,39.056 -1.514,35.243 -5.208,31.406 -9.086,27.545 -5.008,24.144 -1.075,20.109 2.713,15.441 6.501,10.773 10.143,5.625 13.642,0 Z" /></g><path
           id="path24"
           style="fill:#000000;fill-opacity:1;fill-rule:nonzero;stroke:none"
           d="M 60.533,22.085 H 49.574 v 38.688 h 10.959 z m 1.03,49.868 c 0,-2.011 -0.651,-3.592 -1.95,-4.744 -1.3,-1.152 -2.831,-1.728 -4.597,-1.728 -1.765,0 -3.298,0.576 -4.597,1.728 -1.299,1.152 -1.949,2.733 -1.949,4.744 0,2.01 0.65,3.592 1.949,4.745 1.299,1.151 2.832,1.728 4.597,1.728 1.766,0 3.297,-0.577 4.597,-1.728 1.299,-1.153 1.95,-2.735 1.95,-4.745" /><g
           transform="translate(70.4609,70.4086)"
           id="g26"><path
             id="path28"
             style="fill:#000000;fill-opacity:1;fill-rule:nonzero;stroke:none"
             d="m 0,0 10.959,1.765 v -11.4 h 13.166 v -9.12 H 10.959 v -13.608 c 0,-2.305 0.405,-4.144 1.214,-5.516 0.809,-1.373 2.439,-2.06 4.891,-2.06 1.177,0 2.391,0.11 3.641,0.331 1.251,0.221 2.391,0.526 3.42,0.919 l 1.545,-8.531 c -1.324,-0.541 -2.795,-1.006 -4.413,-1.399 -1.618,-0.39 -3.604,-0.588 -5.958,-0.588 -2.991,0 -5.468,0.405 -7.429,1.214 -1.961,0.81 -3.53,1.937 -4.707,3.384 -1.177,1.445 -1.998,3.199 -2.464,5.258 C 0.232,-37.291 0,-35.011 0,-32.509 Z" /></g><g
           transform="translate(100.1763,41.4286)"
           id="g30"><path
             id="path32"
             style="fill:#000000;fill-opacity:1;fill-rule:nonzero;stroke:none"
             d="m 0,0 c 0,2.795 0.453,5.431 1.36,7.907 0.907,2.476 2.219,4.634 3.935,6.473 1.716,1.839 3.8,3.297 6.252,4.376 2.452,1.078 5.247,1.619 8.386,1.619 2.059,0 3.946,-0.185 5.663,-0.552 1.716,-0.368 3.383,-0.895 5.002,-1.581 L 28.317,9.488 c -1.029,0.393 -2.158,0.737 -3.383,1.031 -1.226,0.294 -2.6,0.441 -4.119,0.441 -3.236,0 -5.652,-1.006 -7.245,-3.016 C 11.976,5.934 11.18,3.285 11.18,0 c 0,-3.482 0.747,-6.178 2.243,-8.09 1.495,-1.912 4.106,-2.869 7.833,-2.869 1.325,0 2.746,0.122 4.266,0.368 1.52,0.245 2.917,0.637 4.193,1.177 l 1.544,-8.974 c -1.275,-0.54 -2.868,-1.005 -4.78,-1.397 -1.913,-0.392 -4.021,-0.588 -6.326,-0.588 -3.53,0 -6.571,0.527 -9.12,1.581 -2.551,1.054 -4.647,2.487 -6.289,4.303 C 3.101,-12.676 1.899,-10.53 1.14,-8.054 0.379,-5.578 0,-2.894 0,0" /></g><g
           transform="translate(138.791,22.0848)"
           id="g34"><path
             id="path36"
             style="fill:#000000;fill-opacity:1;fill-rule:nonzero;stroke:none"
             d="m 0,0 v 55.312 l 10.959,1.765 V 38.542 c 0.736,0.244 1.68,0.478 2.833,0.698 1.151,0.221 2.267,0.331 3.346,0.331 3.137,0 5.748,-0.43 7.833,-1.287 2.084,-0.859 3.751,-2.072 5.002,-3.641 1.25,-1.57 2.133,-3.432 2.648,-5.59 0.515,-2.158 0.772,-4.561 0.772,-7.207 V 0 H 22.434 v 20.521 c 0,3.531 -0.455,6.032 -1.361,7.502 -0.908,1.471 -2.587,2.207 -5.038,2.207 -0.982,0 -1.901,-0.086 -2.759,-0.257 -0.858,-0.172 -1.63,-0.357 -2.317,-0.552 L 10.959,0 Z" /></g><g
           transform="translate(206.0161,45.327)"
           id="g38"><path
             id="path40"
             style="fill:#000000;fill-opacity:1;fill-rule:nonzero;stroke:none"
             d="m 0,0 c -0.049,0.932 -0.209,1.84 -0.478,2.722 -0.27,0.882 -0.687,1.667 -1.251,2.353 -0.563,0.687 -1.275,1.251 -2.132,1.693 -0.859,0.441 -1.925,0.662 -3.2,0.662 -1.226,0 -2.28,-0.21 -3.163,-0.626 C -11.106,6.387 -11.842,5.835 -12.43,5.148 -13.019,4.462 -13.473,3.666 -13.791,2.758 -14.11,1.851 -14.342,0.932 -14.489,0 Z m -25.743,-4.192 c 0,3.432 0.526,6.436 1.582,9.01 1.054,2.575 2.438,4.719 4.155,6.436 1.716,1.716 3.69,3.016 5.921,3.898 2.231,0.883 4.523,1.324 6.877,1.324 5.491,0 9.831,-1.68 13.02,-5.038 3.186,-3.36 4.78,-8.3 4.78,-14.821 0,-0.638 -0.026,-1.337 -0.073,-2.096 -0.05,-0.761 -0.099,-1.435 -0.148,-2.023 h -24.86 c 0.245,-2.256 1.299,-4.045 3.163,-5.369 1.862,-1.324 4.363,-1.986 7.502,-1.986 2.01,0 3.983,0.183 5.921,0.551 1.936,0.368 3.517,0.822 4.744,1.361 l 1.471,-8.9 c -0.588,-0.294 -1.374,-0.589 -2.354,-0.883 -0.981,-0.293 -2.072,-0.551 -3.272,-0.772 -1.203,-0.221 -2.491,-0.404 -3.863,-0.551 -1.373,-0.147 -2.746,-0.22 -4.118,-0.22 -3.482,0 -6.51,0.514 -9.084,1.543 -2.574,1.031 -4.707,2.439 -6.399,4.23 -1.692,1.789 -2.942,3.91 -3.751,6.362 -0.809,2.451 -1.214,5.099 -1.214,7.944" /></g><g
           transform="translate(225.0669,59.4496)"
           id="g42"><path
             id="path44"
             style="fill:#000000;fill-opacity:1;fill-rule:nonzero;stroke:none"
             d="m 0,0 c 1.863,0.539 4.267,1.041 7.208,1.508 2.942,0.465 6.031,0.699 9.268,0.699 3.285,0 6.018,-0.431 8.201,-1.288 2.181,-0.858 3.91,-2.072 5.185,-3.641 1.275,-1.57 2.182,-3.432 2.722,-5.59 0.539,-2.158 0.809,-4.561 0.809,-7.207 V -37.365 H 22.434 v 20.522 c 0,3.53 -0.467,6.031 -1.398,7.502 -0.932,1.47 -2.673,2.207 -5.223,2.207 -0.784,0 -1.617,-0.037 -2.5,-0.112 -0.882,-0.073 -1.667,-0.159 -2.353,-0.256 V -37.365 H 0 Z" /></g><path
           id="path46"
           style="fill:#de3333;fill-opacity:1;fill-rule:nonzero;stroke:none"
           d="m 269.124,73.057 h 11.475 V 22.085 h -11.475 z" /><g
           transform="translate(326.5679,22.0848)"
           id="g48"><path
             id="path50"
             style="fill:#de3333;fill-opacity:1;fill-rule:nonzero;stroke:none"
             d="m 0,0 c -3.286,5.835 -6.84,11.596 -10.665,17.285 -3.825,5.688 -7.896,11.057 -12.21,16.108 V 0 h -11.327 v 50.972 h 9.342 c 1.618,-1.618 3.407,-3.604 5.369,-5.958 1.961,-2.354 3.959,-4.867 5.994,-7.539 2.034,-2.673 4.058,-5.443 6.068,-8.311 2.01,-2.869 3.899,-5.627 5.663,-8.275 V 50.972 H 9.636 V 0 Z" /></g><g
           transform="translate(359.6196,84.4999)"
           id="g52"><path
             id="path54"
             style="fill:#de3333;fill-opacity:1;fill-rule:nonzero;stroke:none"
             d="m 0,0 v 11.475 h -79.021 v 0.003 h -11.475 v -15.5 h 11.475 V 0 h 67.525 v -73.025 h -67.525 v 4.254 h -11.475 v -4.254 h -0.035 V -84.5 H 0 v 11.475 h -0.021 l 0,73.025 z" /></g></g></g></g></svg>