<?xml version="1.0" standalone="no"?>
<!DOCTYPE svg PUBLIC "-//W3C//DTD SVG 20010904//EN"
 "http://www.w3.org/TR/2001/REC-SVG-20010904/DTD/svg10.dtd">
<svg version="1.0" xmlns="http://www.w3.org/2000/svg"
 width="194.000000pt" height="194.000000pt" viewBox="0 0 194.000000 194.000000"
 preserveAspectRatio="xMidYMid meet">
<metadata>
Created by potrace 1.11, written by Peter Selinger 2001-2013
</metadata>
<g transform="translate(0.000000,194.000000) scale(0.100000,-0.100000)"
fill="#000000" stroke="none">
<path d="M736 1513 c1 -54 2 -101 3 -105 1 -8 150 -7 149 1 0 3 0 15 1 27 1
20 3 20 449 20 l447 -1 1 -475 c1 -261 -1 -480 -3 -486 -5 -12 -870 -14 -890
-1 -6 4 -9 16 -6 27 5 20 2 21 -73 18 l-79 -3 -1 -103 -1 -102 604 0 603 0 0
640 0 640 -603 0 -603 0 2 -97z"/>
<path d="M4 1295 c-2 -5 -3 -159 -2 -340 l3 -330 73 0 72 -1 1 35 c1 20 1 82
2 139 0 56 4 102 10 102 14 0 120 -113 172 -183 25 -34 52 -69 59 -77 9 -12
32 -16 94 -15 45 0 83 3 85 7 5 15 -130 194 -206 274 -43 46 -78 86 -77 91 1
4 38 46 83 93 81 84 180 196 185 209 1 4 -37 6 -84 6 l-86 0 -46 -51 c-26 -28
-79 -85 -118 -128 l-72 -78 2 126 c0 69 -1 127 -4 127 -30 7 -143 2 -146 -6z"/>
<path d="M739 1305 c-1 0 -2 -152 -3 -337 -1 -223 2 -339 9 -341 5 -2 39 -3
75 -2 l65 0 0 340 0 339 -72 1 c-40 0 -74 1 -74 0z"/>
<path d="M1051 1295 c-4 -5 -7 -158 -7 -340 l1 -329 72 -1 c43 -1 74 3 76 9 2
6 3 104 2 219 0 114 2 207 5 207 17 -1 278 -378 293 -424 4 -11 110 -17 126
-7 8 5 11 104 9 341 l-3 335 -64 0 c-36 0 -69 -5 -75 -11 -7 -7 -11 -77 -10
-197 0 -103 -1 -187 -2 -187 -2 0 -30 39 -63 88 -83 121 -228 302 -243 303
-58 5 -111 2 -117 -6z"/>
</g>
</svg>
